<?xml version="1.0" encoding="UTF-8"?>
<!DOCTYPE svg PUBLIC "-//W3C//DTD SVG 1.1//EN" "http://www.w3.org/Graphics/SVG/1.1/DTD/svg11.dtd">
<!-- Creator: CorelDRAW -->
<svg xmlns="http://www.w3.org/2000/svg" xml:space="preserve" width="110px" height="110px" style="shape-rendering:geometricPrecision; text-rendering:geometricPrecision; image-rendering:optimizeQuality; fill-rule:evenodd; clip-rule:evenodd"
viewBox="0 0 110 110"
 xmlns:xlink="http://www.w3.org/1999/xlink">
 <defs>
  <style type="text/css">
   <![CDATA[
    .str0 {stroke:#2A2929;stroke-width:1.00041;stroke-linecap:round;stroke-linejoin:round}
    .str2 {stroke:#7D70B0;stroke-width:1.00041}
    .str1 {stroke:#7D70B0;stroke-width:1.00041;stroke-linecap:round;stroke-linejoin:round}
    .fil0 {fill:none}
   ]]>
  </style>
 </defs>
 <g id="Layer_x0020_1">
  <metadata id="CorelCorpID_0Corel-Layer"/>
  <g id="_246324040">
   <g>
    <line id="_246325456" class="fil0 str0" x1="58.3579" y1="39.2191" x2="65.1765" y2= "39.2191" />
    <path id="_246325384" class="fil0 str0" d="M65.1765 39.2191c1.42797,0 2.59728,1.16931 2.59728,2.59728"/>
    <line id="_246325312" class="fil0 str0" x1="67.7738" y1="41.8163" x2="67.7738" y2= "66.3565" />
    <path id="_246325240" class="fil0 str0" d="M67.7738 66.3565c0,1.42915 -1.16931,2.59846 -2.59728,2.59846"/>
    <path id="_246325168" class="fil0 str0" d="M65.1765 68.9549c-1.42915,0 -2.59728,-1.16931 -2.59728,-2.59846"/>
    <line id="_246325096" class="fil0 str0" x1="62.5781" y1="66.3565" x2="62.5781" y2= "49.3354" />
    <line id="_246325024" class="fil0 str0" x1="47.7113" y1="49.5822" x2="47.7113" y2= "66.3565" />
    <path id="_246324952" class="fil0 str0" d="M47.7113 66.3565c0,1.42797 -1.16813,2.59846 -2.59728,2.59846"/>
    <path id="_246324880" class="fil0 str0" d="M45.114 68.9549c-1.42797,0 -2.59728,-1.16931 -2.59728,-2.59846"/>
    <line id="_246324808" class="fil0 str0" x1="42.5168" y1="66.3565" x2="42.5168" y2= "41.8163" />
    <path id="_246324736" class="fil0 str0" d="M42.5168 41.8163c0,-1.42797 1.16931,-2.59728 2.59728,-2.59728"/>
    <line id="_246324664" class="fil0 str0" x1="45.114" y1="39.2191" x2="51.9303" y2= "39.2191" />
    <line id="_246324592" class="fil0 str0" x1="55.1441" y1="65.7482" x2="55.1441" y2= "89.5536" />
    <line id="_246324520" class="fil0 str0" x1="47.7113" y1="89.5536" x2="47.7113" y2= "59.819" />
    <line id="_246324448" class="fil0 str0" x1="62.5781" y1="59.819" x2="62.5781" y2= "89.5536" />
    <line id="_246324376" class="fil0 str0" x1="55.1441" y1="89.5536" x2="55.1441" y2= "65.7482" />
    <path id="_246324304" class="fil0 str1" d="M60.9717 30.4351c0.467723,0.437014 0.935446,0.888202 1.39845,1.3512 9.60368,9.60368 13.9549,20.822 9.71943,25.0586 -4.23431,4.23431 -15.4538,-0.116931 -25.0574,-9.72061 -9.60368,-9.60368 -13.9537,-20.8231 -9.71943,-25.0586 2.52878,-2.5276 7.54735,-1.99491 13.2238,0.888202"/>
    <path id="_246324232" class="fil0 str1" d="M49.0283 30.4351c-0.467723,0.437014 -0.935446,0.888202 -1.39845,1.3512 -9.60368,9.60368 -13.9549,20.822 -9.71943,25.0586 4.23431,4.23431 15.4538,-0.116931 25.0563,-9.72061 9.60486,-9.60368 13.9561,-20.8231 9.72179,-25.0586 -2.53232,-2.53114 -7.55798,-1.99373 -13.2427,0.89647"/>
    <path id="_246324184" class="fil0 str0" d="M55 35.5954c3.40399,0 6.1808,-3.35084 6.1808,-7.45877 0,-4.10911 -2.77681,-7.45995 -6.1808,-7.45995 -3.40399,0 -6.1808,3.35084 -6.1808,7.45995 0,4.10793 2.77681,7.45877 6.1808,7.45877"/>
   </g>
   <path id="_246324088" class="fil0 str2" d="M55.0012 105.198c27.6476,0 50.1976,-22.5499 50.1976,-50.1976 0,-27.6476 -22.5499,-50.1976 -50.1976,-50.1976 -27.6476,0 -50.1988,22.5499 -50.1988,50.1976 0,27.6476 22.5511,50.1976 50.1988,50.1976"/>
  </g>
 </g>
</svg>
