<?xml version="1.0" encoding="UTF-8"?>
<!DOCTYPE svg PUBLIC "-//W3C//DTD SVG 1.1//EN" "http://www.w3.org/Graphics/SVG/1.1/DTD/svg11.dtd">
<!-- Creator: CorelDRAW -->
<svg xmlns="http://www.w3.org/2000/svg" xml:space="preserve" width="110px" height="110px" style="shape-rendering:geometricPrecision; text-rendering:geometricPrecision; image-rendering:optimizeQuality; fill-rule:evenodd; clip-rule:evenodd"
viewBox="0 0 110 110"
 xmlns:xlink="http://www.w3.org/1999/xlink">
 <defs>
  <style type="text/css">
   <![CDATA[
    .str2 {stroke:#009845;stroke-width:1.00041}
    .str1 {stroke:#009845;stroke-width:1.00041;stroke-linecap:round;stroke-linejoin:round}
    .str0 {stroke:#2A2929;stroke-width:1.00041;stroke-linecap:round;stroke-linejoin:round}
    .fil0 {fill:none}
   ]]>
  </style>
 </defs>
 <g id="Layer_x0020_1">
  <metadata id="CorelCorpID_0Corel-Layer"/>
  <g id="_246325528">
   <g>
    <line id="_248654144" class="fil0 str0" x1="72.764" y1="71.127" x2="79.461" y2= "71.127" />
    <line id="_248654072" class="fil0 str1" x1="55.6461" y1="78.8468" x2="55.1665" y2= "78.3684" />
    <line id="_248654000" class="fil0 str1" x1="29.8055" y1="63.3706" x2="32.7678" y2= "63.3706" />
    <line id="_248653928" class="fil0 str1" x1="62.7836" y1="76.468" x2="58.6591" y2= "72.3436" />
    <line id="_248653856" class="fil0 str1" x1="67.5411" y1="71.7093" x2="56.4197" y2= "60.5891" />
    <line id="_248653784" class="fil0 str1" x1="65.936" y1="51.0728" x2="77.0574" y2= "62.1942" />
    <polyline id="_248653712" class="fil0 str1" points="15.227,39.7848 29.8055,39.7848 29.8055,66.4202 15.227,66.4202 "/>
    <path id="_248653640" class="fil0 str1" d="M29.8055 42.7766c0.814972,0 1.62994,0 2.44374,0 2.40948,0 2.08822,-0.141734 3.55635,-1.60987 0.900013,-0.897651 1.79766,-1.79648 2.6965,-2.69531 1.93822,-1.93822 2.29373,-1.5827 4.13156,-1.5827 3.46186,0 6.92372,0 10.3856,0 3.54926,0 2.70358,-0.15827 5.24181,2.38114"/>
    <path id="_248653568" class="fil0 str0" d="M79.461 47.6345c-0.48544,0 -2.40476,0 -2.8902,0 -1.95593,0 -2.37759,-0.35906 -3.48666,-1.42325 -1.92877,-1.84609 -3.85872,-3.69336 -5.7863,-5.53945 -1.09135,-1.04411 -1.62404,-1.44687 -3.47249,-1.44687 -2.59728,0 -5.19338,0 -7.79066,0 -1.68664,0 -2.53941,0.0472448 -4.02998,1.53782 -3.38154,3.38036 -6.76309,6.76309 -10.1435,10.1435 -0.394494,0.394494 -1.46223,1.83192 0.368509,2.7213 2.67642,1.30277 5.8241,1.52364 7.982,-0.634261"/>
    <line id="_248653496" class="fil0 str0" x1="50.2117" y1="52.9933" x2="56.6583" y2= "46.5455" />
    <path id="_248653424" class="fil0 str0" d="M56.6583 46.5455c0.778358,0.778358 1.55672,1.55553 2.33507,2.33389 1.29687,1.29687 2.80988,1.88625 4.66306,1.88625 0.545677,0 1.09017,0 1.63585,0 1.41971,0 1.68073,-0.25276 3.13351,-1.70554"/>
    <path id="_248653352" class="fil0 str0" d="M39.9667 57.6327c1.60396,0.924816 2.15672,2.99296 1.23191,4.59455"/>
    <line id="_248653280" class="fil0 str0" x1="41.1986" y1="62.2273" x2="37.8809" y2= "67.9746" />
    <path id="_248653208" class="fil0 str0" d="M37.8809 67.9746c-0.924816,1.60278 -2.99296,2.15672 -4.59574,1.23073"/>
    <path id="_248653136" class="fil0 str0" d="M33.2851 69.2053c-1.60278,-0.924816 -2.15672,-2.99178 -1.23191,-4.59574"/>
    <line id="_248653064" class="fil0 str0" x1="32.0532" y1="64.6096" x2="35.371" y2= "58.8634" />
    <path id="_248652992" class="fil0 str0" d="M35.371 58.8634c0.924816,-1.60278 2.99414,-2.15672 4.59574,-1.23073"/>
    <path id="_248652920" class="fil0 str0" d="M46.9164 59.0536c1.6016,0.925998 2.15554,2.99414 1.23073,4.59574"/>
    <line id="_248652848" class="fil0 str0" x1="48.1471" y1="63.6493" x2="43.7073" y2= "71.3384" />
    <path id="_248652776" class="fil0 str0" d="M43.7073 71.3384c-0.924816,1.60278 -2.99296,2.15672 -4.59574,1.23191"/>
    <path id="_248652704" class="fil0 str0" d="M39.1116 72.5703c-1.6016,-0.925998 -2.15554,-2.99296 -1.23073,-4.59574"/>
    <line id="_248652632" class="fil0 str0" x1="37.8809" y1="67.9746" x2="42.3195" y2= "60.2855" />
    <path id="_248652560" class="fil0 str0" d="M42.3195 60.2855c0.925998,-1.60278 2.99414,-2.15672 4.59692,-1.23191"/>
    <path id="_248652488" class="fil0 str0" d="M52.7429 62.4186c1.6016,0.925998 2.15672,2.99296 1.23191,4.59692"/>
    <line id="_248652416" class="fil0 str0" x1="53.9748" y1="67.0155" x2="49.535" y2= "74.7023" />
    <path id="_248652344" class="fil0 str0" d="M49.535 74.7023c-0.924816,1.60278 -2.99296,2.1579 -4.59574,1.23191"/>
    <path id="_248652272" class="fil0 str0" d="M44.9392 75.9342c-1.6016,-0.925998 -2.15672,-2.99296 -1.23191,-4.59574"/>
    <line id="_248652200" class="fil0 str0" x1="43.7073" y1="71.3384" x2="48.1471" y2= "63.6493" />
    <path id="_248652128" class="fil0 str0" d="M48.1471 63.6493c0.924816,-1.6016 2.99296,-2.15554 4.59574,-1.23073"/>
    <path id="_248652056" class="fil0 str0" d="M57.4485 67.7254c1.60278,0.924816 2.15672,2.99296 1.23191,4.59574"/>
    <line id="_248651984" class="fil0 str0" x1="58.6804" y1="72.3211" x2="55.3626" y2= "78.0673" />
    <path id="_248651912" class="fil0 str0" d="M55.3626 78.0673c-0.924816,1.60396 -2.99414,2.15672 -4.59574,1.23073"/>
    <path id="_248651840" class="fil0 str0" d="M50.7669 79.298c-1.60278,-0.924816 -2.15672,-2.99178 -1.23191,-4.59574"/>
    <line id="_248651768" class="fil0 str0" x1="49.535" y1="74.7023" x2="52.8527" y2= "68.9573" />
    <path id="_246326392" class="fil0 str0" d="M52.8527 68.9573c0.924816,-1.60278 2.99296,-2.15672 4.59574,-1.23191"/>
    <path id="_246326368" class="fil0 str1" d="M60.4036 74.0892c1.30986,1.30868 1.30986,3.44887 0,4.75755"/>
    <path id="_246326296" class="fil0 str1" d="M60.4036 78.8468c-1.3075,1.30868 -3.44887,1.30868 -4.75755,0"/>
    <path id="_246326224" class="fil0 str1" d="M67.5411 71.7093c1.30868,1.30868 1.30868,3.45005 0,4.75873"/>
    <path id="_246326152" class="fil0 str1" d="M67.5411 76.468c-1.3075,1.30868 -3.45005,1.30868 -4.75755,0"/>
    <line id="_246326080" class="fil0 str1" x1="61.1773" y1="55.8303" x2="72.2999" y2= "66.9517" />
    <path id="_246326008" class="fil0 str1" d="M72.2999 66.9517c1.3075,1.30868 1.3075,3.44887 0,4.75755"/>
    <path id="_246325936" class="fil0 str1" d="M72.2999 71.7093c-1.30986,1.30868 -3.45005,1.30868 -4.75873,0"/>
    <path id="_246325864" class="fil0 str1" d="M77.0574 62.1942c1.3075,1.3075 1.3075,3.45005 0,4.75755"/>
    <path id="_246325792" class="fil0 str1" d="M77.0574 66.9517c-1.30986,1.30868 -3.45005,1.30868 -4.75755,0"/>
    <line id="_246325720" class="fil0 str1" x1="72.2999" y1="66.9517" x2="61.1773" y2= "55.8303" />
    <polyline id="_246325672" class="fil0 str0" points="94.0407,45.9314 79.461,45.9314 79.461,72.5656 94.0407,72.5656 "/>
   </g>
   <path id="_246325576" class="fil0 str2" d="M55 105.198c27.6476,0 50.1976,-22.5499 50.1976,-50.1976 0,-27.6476 -22.5499,-50.1976 -50.1976,-50.1976 -27.6476,0 -50.1988,22.5499 -50.1988,50.1976 0,27.6476 22.5511,50.1976 50.1988,50.1976"/>
  </g>
 </g>
</svg>
