<?xml version="1.0" encoding="UTF-8" standalone="no"?>
<svg width="45px" height="51px" viewBox="0 0 45 51" version="1.1" xmlns="http://www.w3.org/2000/svg" xmlns:xlink="http://www.w3.org/1999/xlink" xmlns:sketch="http://www.bohemiancoding.com/sketch/ns">
    <!-- Generator: Sketch 3.3.2 (12043) - http://www.bohemiancoding.com/sketch -->
    <title>Imported Layers Copy 7</title>
    <desc>Created with Sketch.</desc>
    <defs></defs>
    <g id="Page-1" stroke="none" stroke-width="1" fill="none" fill-rule="evenodd" sketch:type="MSPage">
        <g id="ancor_main_2" sketch:type="MSArtboardGroup" transform="translate(-1342.000000, -5090.000000)" fill="#00AB4F">
            <g id="НОВОСТИ" sketch:type="MSLayerGroup" transform="translate(28.000000, 3764.000000)">
                <g id="Rectangle-17-Copy-+-Непосредственно-из-з-+-Imported-Layers-Copy-7-Copy-Copy-Copy-Copy" transform="translate(963.750000, 1162.000000)" sketch:type="MSShapeGroup">
                    <path d="M359.115149,209.446122 L357.417032,214.166706 L350.583294,214.166706 L369.388792,164.166706 L376.89775,164.166706 L394.916706,214.166706 L387.67801,214.166706 L386.076865,209.446122 L359.115149,209.446122 L359.115149,209.446122 Z M361.20806,203.628095 L384.103484,203.628095 L382.514004,198.941908 L362.893806,198.941908 L361.20806,203.628095 L361.20806,203.628095 Z M366.628576,188.418408 L364.922729,193.123664 L380.145244,193.123664 L378.571973,188.418408 L366.628576,188.418408 L366.628576,188.418408 Z M368.737913,182.600164 L376.626554,182.600164 L372.90633,171.473891 L372.771634,171.473891 L368.737913,182.600164 L368.737913,182.600164 Z" id="Imported-Layers-Copy-7"></path>
                </g>
            </g>
        </g>
    </g>
</svg>