<?xml version="1.0" standalone="no"?><!DOCTYPE svg PUBLIC "-//W3C//DTD SVG 1.1//EN" "http://www.w3.org/Graphics/SVG/1.1/DTD/svg11.dtd"><svg width="100%" height="100%" viewBox="0 0 222 122" version="1.1" xmlns="http://www.w3.org/2000/svg" xmlns:xlink="http://www.w3.org/1999/xlink" xml:space="preserve" style="fill-rule:evenodd;clip-rule:evenodd;stroke-linecap:round;stroke-linejoin:round;stroke-miterlimit:1.41421;"><rect x="0.974" y="0" width="220.064" height="68.751" style="fill:#c1272d;"/><path d="M148.848,36.635c0,0 -7.89,-1.563 -17.217,3.948" style="fill:none;stroke-width:1.5px;stroke:#fff;"/><g><path d="M13.922,114.643c0,0.821 -0.141,1.57 -0.423,2.246c-0.282,0.677 -0.676,1.252 -1.184,1.727c-0.507,0.476 -1.123,0.846 -1.847,1.112c-0.725,0.265 -1.53,0.398 -2.416,0.398c-0.902,0 -1.711,-0.133 -2.428,-0.398c-0.716,-0.266 -1.328,-0.644 -1.836,-1.136c-0.507,-0.491 -0.898,-1.079 -1.171,-1.763c-0.274,-0.685 -0.411,-1.437 -0.411,-2.259l0,-5.918c0,-0.805 0.133,-1.546 0.399,-2.222c0.265,-0.677 0.652,-1.257 1.159,-1.74c0.507,-0.483 1.123,-0.861 1.848,-1.135c0.725,-0.274 1.538,-0.411 2.44,-0.411c0.886,0 1.691,0.137 2.416,0.411c0.724,0.274 1.34,0.656 1.847,1.147c0.508,0.492 0.902,1.075 1.184,1.752c0.282,0.676 0.423,1.409 0.423,2.198l0,5.991ZM12.762,108.869c0,-0.789 -0.128,-1.477 -0.386,-2.065c-0.258,-0.588 -0.604,-1.075 -1.039,-1.461c-0.435,-0.387 -0.934,-0.673 -1.498,-0.858c-0.563,-0.185 -1.159,-0.278 -1.787,-0.278c-0.644,0 -1.252,0.093 -1.824,0.278c-0.572,0.185 -1.067,0.471 -1.486,0.858c-0.418,0.386 -0.752,0.873 -1.002,1.461c-0.25,0.588 -0.374,1.276 -0.374,2.065l0,5.581c0,0.821 0.136,1.521 0.41,2.101c0.274,0.58 0.632,1.059 1.075,1.437c0.443,0.379 0.946,0.657 1.51,0.834c0.564,0.177 1.127,0.266 1.691,0.266c0.644,0 1.252,-0.093 1.824,-0.278c0.571,-0.185 1.071,-0.467 1.497,-0.846c0.427,-0.378 0.765,-0.857 1.015,-1.437c0.25,-0.58 0.374,-1.272 0.374,-2.077l0,-5.581Z" style="fill:#c1272d;fill-rule:nonzero;"/><path d="M19.381,104.376l0,6.716c0,1.336 -0.08,2.508 -0.241,3.515c-0.161,1.006 -0.399,1.884 -0.713,2.633c-0.314,0.748 -0.692,1.385 -1.135,1.908c-0.443,0.523 -0.955,0.97 -1.534,1.341l-0.58,-0.967c0.483,-0.354 0.91,-0.757 1.28,-1.207c0.371,-0.451 0.689,-1.019 0.954,-1.703c0.266,-0.685 0.467,-1.518 0.604,-2.501c0.137,-0.982 0.206,-2.174 0.206,-3.575l0,-7.223l9.855,0l0,16.644l-1.183,0l0,-15.581l-7.513,0Z" style="fill:#c1272d;fill-rule:nonzero;"/><path d="M30.783,119.957l0,-16.644l10.701,0l0,1.063l-9.542,0l0,6.619l8.214,0l0,1.039l-8.214,0l0,6.884l9.542,0l0,1.039l-10.701,0Z" style="fill:#c1272d;fill-rule:nonzero;"/><path d="M44.842,104.376l0,15.581l-1.135,0l0,-16.644l10.701,0l0,1.063l-9.566,0Z" style="fill:#c1272d;fill-rule:nonzero;"/><path d="M64.312,119.957c-0.225,-0.676 -0.459,-1.345 -0.701,-2.005c-0.241,-0.66 -0.483,-1.328 -0.724,-2.005l-7.61,0c-0.225,0.677 -0.45,1.345 -0.676,2.005c-0.225,0.66 -0.451,1.329 -0.676,2.005l-1.232,0l5.749,-16.644l1.304,0l5.798,16.644l-1.232,0ZM59.07,104.739c-0.064,0.193 -0.181,0.551 -0.35,1.075c-0.169,0.523 -0.371,1.127 -0.604,1.811c-0.234,0.685 -0.479,1.413 -0.737,2.187c-0.258,0.773 -0.503,1.501 -0.737,2.186c-0.233,0.684 -0.439,1.288 -0.616,1.811c-0.177,0.524 -0.298,0.882 -0.362,1.075l6.86,0c-0.064,-0.193 -0.181,-0.551 -0.35,-1.075c-0.169,-0.523 -0.37,-1.127 -0.604,-1.811c-0.233,-0.685 -0.483,-1.413 -0.749,-2.186c-0.265,-0.774 -0.515,-1.506 -0.748,-2.199c-0.234,-0.692 -0.439,-1.296 -0.616,-1.811c-0.178,-0.516 -0.298,-0.87 -0.363,-1.063l-0.024,0Z" style="fill:#c1272d;fill-rule:nonzero;"/><path d="M76.777,103.096c0.612,0 1.211,0.081 1.799,0.242c0.588,0.161 1.111,0.414 1.57,0.761c0.459,0.346 0.826,0.781 1.1,1.304c0.273,0.523 0.41,1.147 0.41,1.872c0,0.419 -0.056,0.833 -0.169,1.244c-0.113,0.411 -0.286,0.793 -0.519,1.148c-0.234,0.354 -0.524,0.664 -0.87,0.93c-0.346,0.265 -0.753,0.471 -1.22,0.616c0.516,0.161 0.954,0.394 1.317,0.7c0.362,0.306 0.656,0.648 0.881,1.027c0.226,0.378 0.387,0.773 0.484,1.183c0.096,0.411 0.145,0.802 0.145,1.172c0,0.773 -0.149,1.461 -0.447,2.065c-0.298,0.604 -0.701,1.112 -1.208,1.522c-0.507,0.411 -1.095,0.721 -1.764,0.93c-0.668,0.21 -1.381,0.314 -2.137,0.314c-1.112,0 -2.07,-0.165 -2.875,-0.495c-0.805,-0.33 -1.466,-0.688 -1.981,-1.075l0.677,-0.87c0.499,0.403 1.111,0.741 1.835,1.015c0.725,0.274 1.49,0.411 2.295,0.411c0.596,0 1.164,-0.085 1.703,-0.254c0.54,-0.169 1.015,-0.415 1.425,-0.737c0.411,-0.322 0.733,-0.712 0.967,-1.171c0.233,-0.459 0.35,-0.971 0.35,-1.534c0,-0.58 -0.097,-1.091 -0.29,-1.534c-0.193,-0.443 -0.447,-0.821 -0.761,-1.136c-0.314,-0.314 -0.672,-0.551 -1.075,-0.712c-0.402,-0.161 -0.813,-0.242 -1.232,-0.242l-1.981,0l0,-1.014l1.981,0c0.322,0 0.673,-0.069 1.051,-0.206c0.379,-0.136 0.733,-0.346 1.063,-0.628c0.33,-0.281 0.608,-0.64 0.833,-1.075c0.226,-0.434 0.339,-0.95 0.339,-1.546c0,-0.579 -0.117,-1.071 -0.351,-1.473c-0.233,-0.403 -0.531,-0.733 -0.894,-0.991c-0.362,-0.257 -0.773,-0.446 -1.231,-0.567c-0.459,-0.121 -0.914,-0.181 -1.365,-0.181c-0.757,0 -1.506,0.124 -2.247,0.374c-0.741,0.25 -1.345,0.568 -1.812,0.954l-0.676,-0.869c0.757,-0.516 1.51,-0.89 2.259,-1.124c0.749,-0.233 1.622,-0.35 2.621,-0.35Z" style="fill:#c1272d;fill-rule:nonzero;"/><path d="M95.135,119.957c-0.225,-0.676 -0.459,-1.345 -0.7,-2.005c-0.242,-0.66 -0.483,-1.328 -0.725,-2.005l-7.609,0c-0.225,0.677 -0.451,1.345 -0.676,2.005c-0.226,0.66 -0.451,1.329 -0.677,2.005l-1.232,0l5.749,-16.644l1.305,0l5.797,16.644l-1.232,0ZM89.894,104.739c-0.065,0.193 -0.182,0.551 -0.351,1.075c-0.169,0.523 -0.37,1.127 -0.604,1.811c-0.233,0.685 -0.479,1.413 -0.736,2.187c-0.258,0.773 -0.504,1.501 -0.737,2.186c-0.234,0.684 -0.439,1.288 -0.616,1.811c-0.177,0.524 -0.298,0.882 -0.363,1.075l6.861,0c-0.065,-0.193 -0.181,-0.551 -0.35,-1.075c-0.169,-0.523 -0.371,-1.127 -0.604,-1.811c-0.234,-0.685 -0.483,-1.413 -0.749,-2.186c-0.266,-0.774 -0.515,-1.506 -0.749,-2.199c-0.234,-0.692 -0.439,-1.296 -0.616,-1.811c-0.177,-0.516 -0.298,-0.87 -0.362,-1.063l-0.024,0Z" style="fill:#c1272d;fill-rule:nonzero;"/><path d="M111.32,106.019l-0.024,0c-0.467,0.998 -0.914,1.949 -1.341,2.85c-0.426,0.902 -0.849,1.788 -1.268,2.658c-0.499,0.998 -0.978,1.968 -1.437,2.91c-0.459,0.943 -0.922,1.897 -1.389,2.863l-0.966,0l-2.947,-5.918l-2.658,-5.387l-0.048,0l0,13.962l-1.159,0l0,-16.644l1.159,0c0.612,1.273 1.228,2.533 1.848,3.781c0.62,1.248 1.236,2.5 1.848,3.756c0.403,0.838 0.801,1.671 1.196,2.5c0.394,0.83 0.801,1.655 1.22,2.476l0.869,-1.739l1.522,-3.237c0.612,-1.256 1.228,-2.516 1.848,-3.78c0.62,-1.264 1.22,-2.517 1.8,-3.757l1.087,0l0,16.644l-1.16,0l0,-13.938Z" style="fill:#c1272d;fill-rule:nonzero;"/><path d="M126.394,115.416c0,1.481 -0.459,2.609 -1.377,3.382c-0.918,0.773 -2.126,1.159 -3.624,1.159l-6.184,0l0,-16.644l1.136,0l0,7.586l5.266,0c0.805,0 1.506,0.132 2.101,0.398c0.596,0.266 1.095,0.608 1.498,1.027c0.403,0.418 0.701,0.902 0.894,1.449c0.193,0.548 0.29,1.095 0.29,1.643ZM125.21,115.416c0,-0.999 -0.338,-1.824 -1.014,-2.476c-0.677,-0.652 -1.619,-0.979 -2.827,-0.979l-5.024,0l0,6.933l5.024,0c0.532,0 1.031,-0.068 1.498,-0.205c0.467,-0.137 0.874,-0.346 1.22,-0.628c0.346,-0.282 0.62,-0.64 0.821,-1.075c0.201,-0.435 0.302,-0.958 0.302,-1.57ZM128.109,119.957l0,-16.644l1.159,0l0,16.644l-1.159,0Z" style="fill:#c1272d;fill-rule:nonzero;"/><path d="M151.106,103.313l0,16.644l-19.06,0l0,-16.644l1.16,0l0,15.605l7.778,0l0,-15.605l1.135,0l0,15.605l7.827,0l0,-15.605l1.16,0Z" style="fill:#c1272d;fill-rule:nonzero;"/><path d="M156.662,104.376l0,6.716c0,1.336 -0.081,2.508 -0.242,3.515c-0.161,1.006 -0.399,1.884 -0.713,2.633c-0.314,0.748 -0.692,1.385 -1.135,1.908c-0.443,0.523 -0.954,0.97 -1.534,1.341l-0.58,-0.967c0.484,-0.354 0.91,-0.757 1.281,-1.207c0.37,-0.451 0.688,-1.019 0.954,-1.703c0.266,-0.685 0.467,-1.518 0.604,-2.501c0.137,-0.982 0.205,-2.174 0.205,-3.575l0,-7.223l9.856,0l0,16.644l-1.184,0l0,-15.581l-7.512,0Z" style="fill:#c1272d;fill-rule:nonzero;"/><path d="M168.088,108.072c0,-0.612 0.092,-1.204 0.277,-1.775c0.186,-0.572 0.467,-1.079 0.846,-1.522c0.378,-0.443 0.857,-0.797 1.437,-1.063c0.58,-0.266 1.256,-0.399 2.029,-0.399l6.619,0l0,16.644l-1.159,0l0,-7.488l-4.711,0c-0.338,0 -0.664,0.04 -0.978,0.12c-0.314,0.081 -0.608,0.222 -0.882,0.423c-0.274,0.202 -0.531,0.475 -0.773,0.822c-0.242,0.346 -0.443,0.793 -0.604,1.34l-1.401,4.783l-1.184,0l1.45,-4.976c0.209,-0.693 0.459,-1.276 0.749,-1.751c0.29,-0.475 0.74,-0.826 1.352,-1.051c-0.547,-0.145 -1.014,-0.354 -1.401,-0.628c-0.386,-0.274 -0.704,-0.592 -0.954,-0.954c-0.249,-0.363 -0.431,-0.757 -0.543,-1.184c-0.113,-0.427 -0.169,-0.874 -0.169,-1.341ZM169.223,108.072c0,0.58 0.101,1.083 0.302,1.51c0.201,0.427 0.475,0.777 0.821,1.051c0.346,0.274 0.749,0.479 1.208,0.616c0.459,0.137 0.946,0.205 1.461,0.205l5.122,0l0,-7.078l-5.315,0c-1.047,0 -1.908,0.326 -2.585,0.979c-0.676,0.652 -1.014,1.558 -1.014,2.717Z" style="fill:#c1272d;fill-rule:nonzero;"/><path d="M181.977,119.957l0,-16.644l10.702,0l0,1.063l-9.542,0l0,6.619l8.213,0l0,1.039l-8.213,0l0,6.884l9.542,0l0,1.039l-10.702,0Z" style="fill:#c1272d;fill-rule:nonzero;"/><path d="M206.23,115.416c0,0.596 -0.1,1.167 -0.302,1.715c-0.201,0.547 -0.495,1.031 -0.881,1.449c-0.387,0.419 -0.866,0.753 -1.438,1.003c-0.571,0.249 -1.219,0.374 -1.944,0.374l-6.861,0l0,-16.644l6.571,0.025c0.773,0 1.445,0.112 2.017,0.338c0.572,0.225 1.051,0.527 1.437,0.906c0.387,0.378 0.673,0.821 0.858,1.328c0.185,0.508 0.278,1.043 0.278,1.607c0,0.338 -0.041,0.684 -0.121,1.038c-0.081,0.355 -0.222,0.697 -0.423,1.027c-0.201,0.33 -0.471,0.636 -0.809,0.918c-0.338,0.282 -0.757,0.511 -1.256,0.688c0.547,0.178 1.002,0.423 1.365,0.737c0.362,0.314 0.656,0.669 0.881,1.063c0.226,0.395 0.387,0.801 0.483,1.22c0.097,0.419 0.145,0.821 0.145,1.208ZM204.757,107.541c0,-0.58 -0.101,-1.067 -0.302,-1.462c-0.201,-0.394 -0.471,-0.72 -0.809,-0.978c-0.339,-0.258 -0.729,-0.443 -1.172,-0.556c-0.443,-0.112 -0.906,-0.169 -1.389,-0.169l-5.121,0l0,6.281l5.411,0c0.419,0 0.833,-0.064 1.244,-0.193c0.411,-0.129 0.773,-0.322 1.087,-0.58c0.314,-0.258 0.568,-0.58 0.761,-0.966c0.193,-0.387 0.29,-0.846 0.29,-1.377ZM205.071,115.416c0,-0.564 -0.101,-1.071 -0.302,-1.522c-0.201,-0.451 -0.467,-0.837 -0.797,-1.16c-0.33,-0.322 -0.713,-0.571 -1.148,-0.748c-0.434,-0.178 -0.893,-0.266 -1.377,-0.266l-5.483,0l0,7.198l5.435,0c0.515,0 0.995,-0.072 1.437,-0.217c0.443,-0.145 0.83,-0.362 1.16,-0.652c0.33,-0.29 0.592,-0.656 0.785,-1.099c0.193,-0.443 0.29,-0.954 0.29,-1.534Z" style="fill:#c1272d;fill-rule:nonzero;"/><path d="M219.42,119.957c-0.226,-0.676 -0.459,-1.345 -0.701,-2.005c-0.241,-0.66 -0.483,-1.328 -0.724,-2.005l-7.61,0c-0.225,0.677 -0.451,1.345 -0.676,2.005c-0.226,0.66 -0.451,1.329 -0.676,2.005l-1.232,0l5.749,-16.644l1.304,0l5.798,16.644l-1.232,0ZM214.178,104.739c-0.065,0.193 -0.181,0.551 -0.35,1.075c-0.17,0.523 -0.371,1.127 -0.604,1.811c-0.234,0.685 -0.479,1.413 -0.737,2.187c-0.258,0.773 -0.503,1.501 -0.737,2.186c-0.233,0.684 -0.439,1.288 -0.616,1.811c-0.177,0.524 -0.298,0.882 -0.362,1.075l6.86,0c-0.064,-0.193 -0.181,-0.551 -0.35,-1.075c-0.169,-0.523 -0.37,-1.127 -0.604,-1.811c-0.234,-0.685 -0.483,-1.413 -0.749,-2.186c-0.266,-0.774 -0.515,-1.506 -0.749,-2.199c-0.233,-0.692 -0.439,-1.296 -0.616,-1.811c-0.177,-0.516 -0.298,-0.87 -0.362,-1.063l-0.024,0Z" style="fill:#c1272d;fill-rule:nonzero;"/></g><path d="M33.919,48.343c0,0 -1.606,0.832 -2.014,1.976" style="fill:none;stroke-width:1.5px;stroke:#fff;"/><path d="M77.878,37.866c0,0 -4.334,-3.566 -8.91,1.44c-4.576,5.006 -4.167,8.24 7.155,1.005" style="fill:none;stroke-width:1.5px;stroke:#fff;"/><path d="M59.181,41.955c-6.437,1.006 -11.652,3.289 -10.972,4.979c0.701,1.741 12.323,-1.04 15.608,-4.979c4.005,-4.802 -0.617,-5.236 -7.835,-4.112c5.731,-3.03 9.364,-5.399 8.123,-6.272c-1.713,-1.207 -6.893,0.144 -11.916,4.385" style="fill:none;stroke-width:1.5px;stroke:#fff;"/><path d="M25.894,35.438c-6.818,4.167 -13.982,12.784 -11.935,15.998c3.594,5.646 32.156,-14.884 25.124,-19.724c-2.071,-1.426 -11.547,3.917 -18.927,13.896" style="fill:none;stroke-width:1.5px;stroke:#fff;"/><path d="M15.714,97.786l-12.826,0l0,-13.834l5.072,9.527l2.683,0l5.071,-9.527l0,13.834ZM24.665,97.786l-3.411,0l0,-23.946l12.19,0l-8.779,23.946ZM41.198,97.786l-11.044,0l1.108,-3.282l8.828,0l1.108,3.282ZM57.52,97.786l-10.832,0l-8.78,-23.946l19.612,0c-4.19,0 -7.592,3.402 -7.592,7.592l0,8.762c0,4.19 3.402,7.592 7.592,7.592ZM196.911,97.786l-11.044,0l1.108,-3.282l8.828,0l1.108,3.282ZM204.985,97.786l-2.585,0l-8.779,-23.946l18.836,0l0,0.009c-4.093,0.195 -7.356,3.58 -7.356,7.72c0,3.037 1.755,5.667 4.305,6.931l-4.421,9.286ZM93.662,97.786l-32.628,0c2.184,0 4.154,-0.924 5.539,-2.403l-3.219,-3.595c-0.574,1.218 -1.812,2.062 -3.247,2.062l-1.66,0c-1.98,0 -3.587,-1.607 -3.587,-3.587l0,-8.9c0,-1.98 1.607,-3.587 3.587,-3.587l1.66,0c1.435,0 2.673,0.843 3.247,2.061l3.219,-3.595c-1.385,-1.478 -3.355,-2.402 -5.539,-2.402l8.066,0l0,4.411l7.209,0l0,19.535l4.722,0l0,-19.535l7.209,0l0,-4.411l4.269,0l0,23.946l1.153,0ZM144.363,97.786l-34.291,0l0,-4.411l-12.841,0l0,-5.142l10.631,0l0,-4.412l-10.631,0l0,-5.57l12.841,0l0,-4.411l4.577,0l0,23.946l4.722,0l0,-8.487l6.261,0l0,-0.009c4.093,-0.195 7.356,-3.58 7.356,-7.721c0,-4.14 -3.263,-7.525 -7.356,-7.72l0,-0.009l18.731,0c-4.19,0 -7.592,3.402 -7.592,7.592l0,8.762c0,4.19 3.402,7.592 7.592,7.592ZM204.985,97.786l5.711,0l3.929,-8.487l4.093,0l0,8.487l2.32,0l-16.053,0ZM32.787,89.986l5.778,0l-2.889,-8.559l-2.889,8.559ZM188.5,89.986l5.778,0l-2.889,-8.559l-2.889,8.559ZM9.301,86.752l-6.458,-12.912l12.916,0l-6.458,12.912ZM125.258,78.251l-5.887,0l0,6.637l5.887,0c1.831,0 3.318,-1.487 3.318,-3.319c0,-1.831 -1.487,-3.318 -3.318,-3.318ZM218.718,78.251l-5.887,0c-1.832,0 -3.318,1.487 -3.318,3.318c0,1.832 1.487,3.319 3.318,3.319l5.887,0l0,-6.637ZM180.377,97.786l-32.5,0c2.184,0 4.154,-0.924 5.539,-2.403l-3.219,-3.595c-0.573,1.218 -1.812,2.062 -3.247,2.062l-1.66,0c-1.98,0 -3.587,-1.607 -3.587,-3.587l0,-8.9c0,-1.98 1.607,-3.587 3.587,-3.587l1.66,0c1.435,0 2.674,0.843 3.247,2.061l3.219,-3.595c-1.385,-1.478 -3.355,-2.402 -5.539,-2.402l10.612,0l0,23.946l4.722,0l0,-6.45l3.941,-4.469l6.346,10.919l5.658,0l-8.757,-14.603l8.239,-9.343l-5.658,0l-9.769,10.57l0,-10.57l25.946,0l-8.78,23.946Z" style="fill:#c1272d;"/><path d="M78.621,37.114c0,0 -4.816,4.977 -2.875,5.715c1.94,0.738 9.307,-3.845 9.307,-3.845c0,0 -3.128,3.15 -0.396,2.971c2.732,-0.179 14.546,-8.558 14.546,-8.558c0,0 -7.732,6.287 -2.867,5.587c4.865,-0.7 12.781,-6.082 12.781,-6.082c0,0 -7.757,7.349 -1.942,6.082c5.815,-1.267 10.844,-7.413 10.844,-7.413c0,0 -7.987,7.416 -2.52,6.533c7.193,-1.161 4.933,-4.487 4.933,-4.487c2.05,-0.232 4.95,-1.761 8.28,-3.947c-7.02,8.829 -3.639,8.498 6.859,1.901c-5.287,5.778 3.31,3.406 8.573,-2.45c-8.008,9.116 14.641,-1.991 10.908,-2.372c-3.107,-0.317 -5.826,6.296 -4.333,7.815c0.836,0.851 3.991,-0.295 6.764,-2.993c-2.104,6.833 8.038,0.682 15.566,-7.356c-7.315,8.255 -6.039,10.757 -0.46,6.417c3.526,6.323 13.302,-6.446 10.882,-6.964c-4.094,-0.876 -6.224,6.527 -3.204,7.385c2.314,0.657 16.098,-6.767 12.548,-7.029c-2.915,-0.215 -6.576,6.179 -3.353,7.547c1.82,0.734 10.094,-3.617 19.054,-8.508c3.348,-1.553 4.574,-4.84 3.735,-5.031c-3.534,-0.802 -6.035,5.165 -8.726,10.526c-0.702,1.789 -0.177,2.551 1.831,2.074c4.397,-1.927 6.458,-4.039 6.008,-4.625c-0.237,-0.309 -1.703,-0.83 -4.317,0.934" style="fill:none;stroke-width:1.5px;stroke:#fff;"/></svg>