<?xml version="1.0" encoding="UTF-8" standalone="no"?>
<svg width="12px" height="18px" viewBox="0 0 12 18" version="1.1" xmlns="http://www.w3.org/2000/svg" xmlns:xlink="http://www.w3.org/1999/xlink" xmlns:sketch="http://www.bohemiancoding.com/sketch/ns">
    <!-- Generator: Sketch 3.3.2 (12043) - http://www.bohemiancoding.com/sketch -->
    <title>ok copy 2</title>
    <desc>Created with Sketch.</desc>
    <defs></defs>
    <g id="Page-1" stroke="none" stroke-width="1" fill="none" fill-rule="evenodd" sketch:type="MSPage">
        <g id="ancor_prog_2a" sketch:type="MSArtboardGroup" transform="translate(-1368.000000, -877.000000)" fill="#2E2E2E">
            <g id="ВВОДНОЕ" sketch:type="MSLayerGroup" transform="translate(27.800000, 876.377441)">
                <g id="Group" transform="translate(1116.200000, 0.622559)" sketch:type="MSShapeGroup">
                    <g id="ok-copy-2" transform="translate(224.000000, 0.000000)">
                        <path d="M5.98847467,2.91248007 C7.02427483,2.91248007 7.86681248,3.74873867 7.86681248,4.77715078 C7.86681248,5.8047544 7.02427483,6.641552 5.98847467,6.641552 C4.95348881,6.641552 4.11013685,5.8047544 4.11013685,4.77715078 C4.11013685,3.74873867 4.95348881,2.91248007 5.98847467,2.91248007 L5.98847467,2.91248007 Z M5.98847467,9.2802268 C8.49084408,9.2802268 10.5249862,7.26032407 10.5249862,4.77715078 C10.5249862,2.293169 8.49084408,0.272727273 5.98847467,0.272727273 C3.48664812,0.272727273 1.45196311,2.293169 1.45196311,4.77715078 C1.45196311,7.26032407 3.48664812,9.2802268 5.98847467,9.2802268 Z M7.83552889,12.9565832 C8.7589545,12.7477207 9.64953635,12.3849736 10.4698162,11.8734626 C11.0905906,11.4848435 11.2776101,10.6701449 10.8864707,10.0537984 C10.4956027,9.43610428 9.67559421,9.25014926 9.05373411,9.63876831 C7.19548256,10.7989659 4.80304477,10.7986964 2.94587896,9.63876831 C2.32401886,9.25014926 1.50373896,9.43610428 1.11368528,10.0537984 C0.722545861,10.6706839 0.909022462,11.4848435 1.52979682,11.8734626 C2.35007672,12.3844346 3.24065857,12.7477207 4.16408418,12.9565832 L1.62778526,15.4747915 C1.1093423,15.9900755 1.1093423,16.8255256 1.62832813,17.3408097 C1.88809248,17.5981822 2.22793048,17.7270032 2.56776847,17.7270032 C2.90814935,17.7270032 3.24853022,17.5981822 3.50829456,17.3408097 L5.9995351,14.8662604 L8.49294712,17.3408097 C9.01139007,17.8560937 9.85257055,17.8560937 10.3715564,17.3408097 C10.8910851,16.8255256 10.8910851,15.9895365 10.3715564,15.4747915 L7.83552889,12.9565832 Z" id="Shape"></path>
                    </g>
                </g>
            </g>
        </g>
    </g>
</svg>