<?xml version="1.0" standalone="no"?><!DOCTYPE svg PUBLIC "-//W3C//DTD SVG 1.1//EN" "http://www.w3.org/Graphics/SVG/1.1/DTD/svg11.dtd"><svg width="100%" height="100%" viewBox="0 0 334 60" version="1.1" xmlns="http://www.w3.org/2000/svg" xmlns:xlink="http://www.w3.org/1999/xlink" xml:space="preserve" style="fill-rule:evenodd;clip-rule:evenodd;stroke-linejoin:round;stroke-miterlimit:1.41421;"><g><rect x="-0.96" y="-1.127" width="334.675" height="61.927" style="fill:#231f20;fill-rule:nonzero;"/><path d="M193.706,38.355l15.378,0l0,-0.892l-14.317,0l0,-9.016l13.229,0l0,-0.837l-13.229,0l0,-8.68l14.317,0l0,-0.809l-15.378,0l0,20.234ZM188.04,38.355l0,-20.262l-1.088,0l-16.635,18.643l0,-18.643l-1.088,0l0,20.262l1.088,0l16.635,-18.867l0,18.867l1.088,0ZM146.483,38.355l1.117,0l0,-10.466l15.015,0l0,10.466l1.116,0l0,-20.262l-1.116,0l0,8.987l-15.015,0l0,-8.987l-1.117,0l0,20.262ZM126.611,38.355l15.379,0l0,-0.892l-14.318,0l0,-9.016l13.229,0l0,-0.837l-13.229,0l0,-8.68l14.318,0l0,-0.809l-15.379,0l0,20.234ZM109.894,38.355l0,-6.781l4.354,-4.382l7.926,11.163l1.312,0l-8.429,-11.945l8.15,-8.317l-1.284,0l-12.029,12.364l0,-12.364l-1.061,0l0,12.364l-12.029,-12.364l-1.284,0l8.15,8.317l-8.429,11.945l1.311,0l7.927,-11.163l4.354,4.382l0,6.781l1.061,0ZM91.835,38.355l0,-20.262l-1.088,0l-16.634,18.643l0,-18.643l-1.088,0l0,20.262l1.088,0l16.634,-18.867l0,18.867l1.088,0ZM51.646,38.355l9.796,0c1.652,0.004 3,-0.191 4.038,-0.582c1.042,-0.39 1.809,-1 2.298,-1.832c0.488,-0.832 0.73,-1.906 0.725,-3.224c0,-0.637 -0.121,-1.241 -0.362,-1.804c-0.242,-0.568 -0.596,-1.075 -1.07,-1.526c-0.475,-0.451 -1.061,-0.828 -1.759,-1.125c-0.697,-0.298 -1.502,-0.494 -2.418,-0.596c0.957,-0.098 1.749,-0.298 2.377,-0.609c0.623,-0.307 1.111,-0.684 1.469,-1.135c0.354,-0.447 0.6,-0.935 0.745,-1.452c0.144,-0.521 0.214,-1.042 0.209,-1.563c0.005,-1.074 -0.214,-1.967 -0.651,-2.674c-0.438,-0.707 -1.116,-1.238 -2.038,-1.586c-0.916,-0.354 -2.098,-0.526 -3.535,-0.526l-9.824,0l0,20.234ZM52.707,27.303l0,-8.373l8.345,0c1.177,-0.005 2.172,0.135 2.99,0.414c0.814,0.279 1.438,0.721 1.866,1.331c0.423,0.614 0.642,1.409 0.642,2.4c-0.005,0.79 -0.177,1.456 -0.517,2c-0.344,0.539 -0.818,0.977 -1.432,1.302c-0.614,0.331 -1.335,0.564 -2.159,0.712c-0.828,0.144 -1.725,0.219 -2.702,0.214l-7.033,0ZM52.707,37.463l0,-9.406l6.921,0c0.721,-0.005 1.447,0.042 2.177,0.135c0.731,0.097 1.424,0.251 2.088,0.469c0.661,0.219 1.256,0.512 1.773,0.885c0.521,0.371 0.93,0.827 1.232,1.381c0.303,0.549 0.456,1.2 0.461,1.957c-0.005,1.057 -0.246,1.926 -0.726,2.602c-0.483,0.674 -1.181,1.176 -2.088,1.496c-0.912,0.322 -2.009,0.485 -3.298,0.481l-8.54,0ZM29.011,37.463l-1.479,0l0,6.168l1.061,0l0,-5.276l18.559,0l0,5.276l1.061,0l0,-6.168l-2.177,0l0,-19.342l-14.178,0l0,9.056c0,1.27 -0.051,2.401 -0.158,3.401c-0.107,0.996 -0.275,1.892 -0.502,2.697c-0.228,0.801 -0.521,1.545 -0.884,2.229c-0.358,0.683 -0.795,1.343 -1.303,1.986l0,-0.027ZM44.948,18.93l0.028,18.533l-14.681,0c0.489,-0.727 0.898,-1.434 1.237,-2.121c0.34,-0.69 0.614,-1.401 0.824,-2.131c0.205,-0.727 0.358,-1.512 0.451,-2.354c0.093,-0.847 0.14,-1.782 0.14,-2.814l0,-9.113l12.001,0Z" style="fill:#1cb8d6;fill-rule:nonzero;"/><path d="M285.12,35.656l-2.28,0c-0.201,0.002 -0.404,-0.02 -0.608,-0.061c-0.205,-0.039 -0.39,-0.111 -0.56,-0.214c-0.17,-0.102 -0.306,-0.245 -0.411,-0.426c-0.104,-0.182 -0.158,-0.414 -0.159,-0.694c0.001,-0.248 0.035,-0.453 0.097,-0.617c0.065,-0.162 0.15,-0.293 0.257,-0.39c0.106,-0.098 0.223,-0.17 0.351,-0.219c0.129,-0.047 0.255,-0.078 0.385,-0.094c0.129,-0.014 0.249,-0.021 0.36,-0.019l2.568,0l0,2.734ZM286.205,31.992l-3.576,0c-0.267,-0.002 -0.529,0.019 -0.786,0.066c-0.254,0.043 -0.494,0.117 -0.719,0.221c-0.224,0.102 -0.421,0.238 -0.593,0.408c-0.169,0.17 -0.303,0.379 -0.4,0.627c-0.096,0.25 -0.146,0.543 -0.148,0.881c0.002,0.346 0.05,0.645 0.143,0.898c0.09,0.256 0.214,0.471 0.367,0.649c0.151,0.178 0.32,0.32 0.507,0.435c0.185,0.114 0.373,0.202 0.562,0.266c0.191,0.065 0.37,0.113 0.536,0.143l-2.281,3.441l1.363,0l2.146,-3.441l1.794,0l0,3.441l1.085,0l0,-8.035ZM272.833,31.992l-1.085,0l0,8.035l1.25,0l4.086,-6.486l0.021,0l0,6.486l1.085,0l0,-8.035l-1.24,0l-4.073,6.574l-0.044,0l0,-6.574ZM264.608,31.992l-1.085,0l0,8.035l1.085,0l0,-3.752l4.195,0l0,3.752l1.085,0l0,-8.035l-1.085,0l0,3.32l-4.195,0l0,-3.32ZM257.468,36.728l1.284,-3.541l0.022,0l1.185,3.541l-2.491,0ZM260.347,37.681l0.797,2.346l1.183,0l-2.899,-8.035l-1.231,0l-3.02,8.035l1.118,0l0.841,-2.346l3.211,0ZM247.616,31.992l0,8.035l1.085,0l0,-7.072l4.195,0l0,7.072l1.084,0l0,-8.035l-6.364,0ZM238.074,31.992l0,8.035l1.052,0l0,-4.748c0,-0.061 -0.002,-0.164 -0.006,-0.309c-0.004,-0.144 -0.007,-0.312 -0.011,-0.507c-0.004,-0.194 -0.006,-0.393 -0.011,-0.598c-0.003,-0.207 -0.005,-0.404 -0.005,-0.59l0.033,0l2.258,6.752l1.074,0l2.269,-6.752l0.011,0c0,0.188 -0.002,0.385 -0.006,0.592c-0.002,0.209 -0.005,0.408 -0.01,0.6c-0.004,0.193 -0.008,0.361 -0.012,0.505c-0.003,0.143 -0.005,0.246 -0.005,0.307l0,4.748l1.052,0l0,-8.035l-1.539,0l-2.291,6.797l-0.023,0l-2.28,-6.797l-1.55,0ZM236.535,36.009c0.002,-0.291 -0.025,-0.597 -0.081,-0.917c-0.056,-0.319 -0.143,-0.635 -0.266,-0.952c-0.122,-0.316 -0.282,-0.613 -0.481,-0.896c-0.199,-0.281 -0.444,-0.533 -0.732,-0.752c-0.29,-0.221 -0.627,-0.393 -1.015,-0.52c-0.389,-0.125 -0.832,-0.189 -1.332,-0.191c-0.498,0.002 -0.942,0.066 -1.33,0.191c-0.39,0.127 -0.728,0.299 -1.017,0.52c-0.288,0.219 -0.531,0.471 -0.732,0.752c-0.199,0.283 -0.36,0.58 -0.482,0.896c-0.122,0.317 -0.211,0.633 -0.265,0.952c-0.056,0.32 -0.081,0.626 -0.081,0.917c0,0.291 0.025,0.598 0.081,0.918c0.054,0.319 0.143,0.635 0.265,0.952c0.122,0.314 0.283,0.613 0.482,0.896c0.201,0.281 0.444,0.533 0.732,0.752c0.289,0.221 0.627,0.393 1.017,0.52c0.388,0.125 0.832,0.189 1.33,0.191c0.5,-0.002 0.943,-0.066 1.332,-0.191c0.388,-0.127 0.725,-0.299 1.015,-0.52c0.288,-0.219 0.533,-0.471 0.732,-0.752c0.199,-0.283 0.359,-0.582 0.481,-0.896c0.123,-0.317 0.21,-0.633 0.266,-0.952c0.056,-0.32 0.083,-0.627 0.081,-0.918ZM235.417,36.009c0,0.477 -0.064,0.913 -0.189,1.309c-0.126,0.399 -0.309,0.74 -0.548,1.035c-0.243,0.291 -0.534,0.518 -0.879,0.678c-0.343,0.16 -0.734,0.242 -1.173,0.244c-0.438,-0.002 -0.828,-0.086 -1.173,-0.248c-0.346,-0.162 -0.637,-0.391 -0.879,-0.685c-0.239,-0.295 -0.423,-0.643 -0.548,-1.043c-0.126,-0.399 -0.189,-0.836 -0.189,-1.311c0,-0.477 0.063,-0.912 0.189,-1.307c0.125,-0.394 0.309,-0.736 0.548,-1.025c0.242,-0.291 0.533,-0.514 0.879,-0.672c0.345,-0.158 0.735,-0.238 1.173,-0.24c0.439,0.002 0.83,0.084 1.173,0.244c0.345,0.16 0.636,0.387 0.879,0.678c0.239,0.293 0.422,0.636 0.548,1.033c0.125,0.398 0.189,0.834 0.189,1.31ZM304.138,22.372l-2.281,0c-0.201,0.001 -0.404,-0.019 -0.607,-0.059c-0.205,-0.041 -0.392,-0.113 -0.561,-0.216c-0.17,-0.102 -0.306,-0.244 -0.412,-0.426c-0.102,-0.181 -0.156,-0.414 -0.158,-0.694c0.002,-0.247 0.035,-0.452 0.098,-0.616c0.064,-0.163 0.149,-0.293 0.257,-0.391c0.106,-0.098 0.222,-0.17 0.35,-0.218c0.129,-0.048 0.256,-0.079 0.385,-0.095c0.13,-0.014 0.25,-0.021 0.36,-0.02l2.569,0l0,2.735ZM305.222,18.708l-3.576,0c-0.267,-0.002 -0.529,0.02 -0.786,0.066c-0.254,0.045 -0.494,0.118 -0.719,0.221c-0.223,0.102 -0.42,0.239 -0.592,0.408c-0.17,0.17 -0.304,0.38 -0.401,0.627c-0.095,0.249 -0.145,0.543 -0.147,0.88c0.002,0.347 0.05,0.646 0.143,0.901c0.089,0.254 0.213,0.47 0.367,0.648c0.15,0.176 0.32,0.32 0.507,0.435c0.184,0.112 0.373,0.201 0.562,0.265c0.19,0.065 0.369,0.113 0.535,0.142l-2.28,3.443l1.361,0l2.148,-3.443l1.794,0l0,3.443l1.084,0l0,-8.036ZM293.013,23.446l1.284,-3.542l0.021,0l1.185,3.542l-2.49,0ZM295.891,24.398l0.796,2.346l1.185,0l-2.9,-8.036l-1.229,0l-3.021,8.036l1.117,0l0.842,-2.346l3.21,0ZM284.743,22.991l2.137,0c0.225,-0.001 0.446,0.015 0.668,0.052c0.221,0.037 0.423,0.104 0.605,0.199c0.183,0.099 0.33,0.235 0.439,0.412c0.111,0.179 0.168,0.408 0.17,0.688c0,0.301 -0.063,0.561 -0.191,0.78c-0.127,0.22 -0.316,0.39 -0.569,0.51c-0.253,0.12 -0.568,0.181 -0.944,0.182l-2.315,0l0,-2.823ZM283.658,26.744l3.454,0c0.447,-0.002 0.84,-0.067 1.179,-0.19c0.342,-0.124 0.626,-0.296 0.856,-0.515c0.231,-0.218 0.407,-0.47 0.522,-0.756c0.119,-0.286 0.178,-0.592 0.178,-0.919c-0.002,-0.273 -0.036,-0.509 -0.102,-0.71c-0.064,-0.199 -0.151,-0.369 -0.26,-0.507c-0.107,-0.141 -0.227,-0.257 -0.356,-0.349c-0.129,-0.094 -0.258,-0.17 -0.388,-0.231c-0.129,-0.059 -0.247,-0.111 -0.355,-0.151c0.219,-0.107 0.4,-0.229 0.542,-0.366c0.14,-0.138 0.249,-0.282 0.326,-0.435c0.078,-0.151 0.132,-0.302 0.163,-0.454c0.029,-0.151 0.044,-0.293 0.042,-0.428c0,-0.276 -0.048,-0.535 -0.142,-0.778c-0.096,-0.243 -0.238,-0.46 -0.428,-0.646c-0.19,-0.186 -0.426,-0.332 -0.708,-0.439c-0.285,-0.107 -0.615,-0.161 -0.992,-0.162l-3.531,0l0,8.036ZM284.743,19.637l1.971,0c0.4,0 0.723,0.047 0.967,0.139c0.243,0.092 0.421,0.227 0.531,0.4c0.11,0.176 0.164,0.386 0.162,0.635c-0.002,0.326 -0.068,0.583 -0.2,0.773c-0.136,0.19 -0.325,0.324 -0.574,0.405c-0.249,0.08 -0.548,0.119 -0.897,0.117l-1.96,0l0,-2.469ZM282.12,22.726c0.002,-0.292 -0.025,-0.598 -0.081,-0.917c-0.056,-0.319 -0.145,-0.636 -0.266,-0.952c-0.122,-0.316 -0.282,-0.615 -0.482,-0.897c-0.198,-0.282 -0.444,-0.533 -0.732,-0.752c-0.29,-0.22 -0.627,-0.392 -1.014,-0.519c-0.39,-0.125 -0.832,-0.19 -1.332,-0.192c-0.499,0.002 -0.944,0.067 -1.331,0.192c-0.389,0.127 -0.727,0.299 -1.017,0.519c-0.287,0.219 -0.53,0.47 -0.732,0.752c-0.198,0.282 -0.36,0.581 -0.481,0.897c-0.122,0.316 -0.211,0.633 -0.265,0.952c-0.056,0.319 -0.081,0.625 -0.081,0.917c0,0.291 0.025,0.597 0.081,0.917c0.054,0.319 0.143,0.636 0.265,0.952c0.121,0.315 0.283,0.614 0.481,0.896c0.202,0.283 0.445,0.534 0.732,0.753c0.29,0.22 0.628,0.391 1.017,0.518c0.387,0.126 0.832,0.19 1.331,0.192c0.5,-0.002 0.942,-0.066 1.332,-0.192c0.387,-0.127 0.724,-0.298 1.014,-0.518c0.288,-0.219 0.534,-0.47 0.732,-0.753c0.2,-0.282 0.36,-0.581 0.482,-0.896c0.121,-0.316 0.21,-0.633 0.266,-0.952c0.056,-0.32 0.083,-0.626 0.081,-0.917ZM281.002,22.726c0,0.476 -0.065,0.911 -0.191,1.308c-0.125,0.398 -0.307,0.742 -0.546,1.035c-0.243,0.292 -0.535,0.519 -0.879,0.679c-0.343,0.16 -0.735,0.241 -1.173,0.243c-0.438,-0.002 -0.829,-0.085 -1.174,-0.247c-0.345,-0.162 -0.637,-0.391 -0.878,-0.686c-0.24,-0.295 -0.423,-0.642 -0.548,-1.043c-0.126,-0.398 -0.19,-0.836 -0.19,-1.311c0,-0.476 0.064,-0.912 0.19,-1.306c0.125,-0.395 0.308,-0.737 0.548,-1.026c0.241,-0.29 0.533,-0.513 0.878,-0.672c0.345,-0.158 0.736,-0.238 1.174,-0.239c0.438,0.001 0.83,0.082 1.173,0.243c0.344,0.16 0.636,0.388 0.879,0.679c0.239,0.292 0.421,0.636 0.546,1.033c0.126,0.399 0.191,0.834 0.191,1.31ZM268.56,18.708l0,8.036l1.084,0l0,-7.073l4.174,0l0,-0.963l-5.258,0ZM261.42,18.708l-1.085,0l0,8.036l1.085,0l0,-3.753l4.195,0l0,3.753l1.085,0l0,-8.036l-1.085,0l0,3.321l-4.195,0l0,-3.321ZM253.118,18.708l-1.085,0l0,8.036l1.25,0l4.085,-6.486l0.023,0l0,6.486l1.085,0l0,-8.036l-1.241,0l-4.073,6.575l-0.044,0l0,-6.575ZM244.893,18.708l-1.084,0l0,8.036l1.084,0l0,-3.753l4.195,0l0,3.753l1.085,0l0,-8.036l-1.085,0l0,3.321l-4.195,0l0,-3.321ZM242.203,25.781l-4.849,0l0,-2.79l4.395,0l0,-0.962l-4.395,0l0,-2.358l4.772,0l0,-0.963l-5.857,0l0,8.036l5.934,0l0,-0.963ZM229.816,23.357l2.535,0c0.347,-0.002 0.651,-0.05 0.915,-0.142c0.264,-0.093 0.487,-0.218 0.673,-0.378c0.187,-0.159 0.338,-0.342 0.455,-0.547c0.118,-0.204 0.203,-0.42 0.255,-0.647c0.056,-0.225 0.081,-0.452 0.081,-0.677c0,-0.327 -0.054,-0.626 -0.162,-0.9c-0.108,-0.273 -0.265,-0.512 -0.47,-0.715c-0.206,-0.202 -0.455,-0.361 -0.748,-0.474c-0.294,-0.11 -0.626,-0.168 -0.999,-0.169l-3.62,0l0,8.036l1.085,0l0,-3.387ZM229.816,19.637l2.203,0c0.225,-0.001 0.435,0.022 0.627,0.067c0.194,0.046 0.362,0.122 0.506,0.225c0.146,0.103 0.258,0.242 0.337,0.413c0.081,0.172 0.122,0.384 0.124,0.635c-0.002,0.36 -0.072,0.646 -0.209,0.858c-0.136,0.212 -0.326,0.365 -0.571,0.457c-0.246,0.092 -0.531,0.137 -0.858,0.135l-2.159,0l0,-2.79ZM224.824,19.671l2.723,0l0,-0.963l-6.531,0l0,0.963l2.723,0l0,7.073l1.085,0l0,-7.073ZM222.765,31.992l-1.085,0l0,8.035l1.085,0l0,-2.822l1.262,-1.207l2.812,4.029l1.405,0l-3.432,-4.793l3.344,-3.242l-1.495,0l-3.896,3.896l0,-3.896Z" style="fill:#bbbdc0;fill-rule:nonzero;"/></g></svg>