<?xml version="1.0" standalone="no"?><!DOCTYPE svg PUBLIC "-//W3C//DTD SVG 1.1//EN" "http://www.w3.org/Graphics/SVG/1.1/DTD/svg11.dtd"><svg width="100%" height="100%" viewBox="0 0 120 75" version="1.1" xmlns="http://www.w3.org/2000/svg" xmlns:xlink="http://www.w3.org/1999/xlink" xml:space="preserve" style="fill-rule:evenodd;clip-rule:evenodd;stroke-linejoin:round;stroke-miterlimit:1.41421;"><g><path d="M75.04,25.429l25.107,-25.107l18.258,0l0,18.259l-25.106,25.106l-18.259,0l0,-18.258Z" style="fill:url(#_Linear1);"/><path d="M58.096,57.61c2.65,-0.526 6.933,-2.017 8.432,-4.509c1.951,-3.22 -0.253,-4.684 -2.782,-4.456c-2.271,0.204 -5.482,1.794 -5.65,8.965ZM58.269,59.358c0.808,4.066 4.199,6.248 9.569,4.231c0.077,-0.027 0.118,0.032 0.087,0.09c-1.363,2.868 -5.011,4.264 -7.787,3.872c-6.048,-0.853 -8.461,-5.311 -6.9,-11.098c2.512,-6.603 10.015,-12.059 17.283,-9.679c1.684,0.76 2.665,2.254 2.416,4.177c-0.848,6.55 -9.456,8.222 -14.668,8.407Z" style="fill:#000;"/><path d="M32.471,50.206c-12.588,-8.801 -14.788,19.352 -5.802,12.69c3.292,-2.462 4.76,-9.021 5.802,-12.69ZM28.9,63.641c-2.447,2.627 -5.219,4.883 -8.964,3.609c-1.564,-0.538 -2.807,-1.671 -3.387,-3.235c-2.573,-7.342 5.215,-16.277 11.478,-17.525c2.222,-0.44 4.433,-0.266 6.549,0.518c1.334,-0.844 3.853,-0.261 3.205,1.799c-1.303,4.232 -2.888,8.673 -3.883,12.988c-0.267,1.195 -0.792,4.147 -0.273,5.668c0.034,0.087 0.006,0.128 -0.066,0.131c-2.316,0.119 -4.076,-2.539 -4.659,-3.953Z" style="fill:#000;"/><path d="M14.678,49.788c-10.242,-6.953 -13.426,19.363 0.471,14.288c0.154,-0.068 0.18,0.065 0.125,0.122c-2.851,4.059 -8.282,3.974 -10.716,2.461c-4.141,-1.944 -4.83,-6.307 -3.49,-10.384c0.717,-2.143 1.934,-4.092 3.523,-5.695c1.786,-1.82 4.066,-3.092 6.519,-3.763c2.192,-0.603 4.815,-0.807 7.056,-0.295c4.25,0.988 0.931,6.914 -3.488,3.266Z" style="fill:#000;"/><path d="M49.642,49.923c-6.947,-4.662 -8.322,1.748 -4.132,4.455c0.937,0.675 2.042,1.208 3.021,1.848c5.117,3.816 1.932,8.816 -2.756,10.654c-2.051,0.804 -4.501,0.863 -6.69,0.617c-1.128,-0.126 -3.245,-0.518 -3.768,-1.992c-0.62,-2.229 2.121,-3.915 3.834,-1.551c2.72,4.738 11.403,-0.803 2.82,-6.016c-6.982,-3.917 -1.381,-10.327 4.192,-11.411c1.649,-0.32 4.292,-0.484 5.906,-0.038c3.563,0.989 1.542,5.556 -2.427,3.434Z" style="fill:#000;"/><path d="M80.148,67.954l-0.762,0l-0.594,2.801l-2.623,0l0.594,-2.801l-0.762,0l-1.347,6.355l0.762,0l0.647,-3.022l2.623,0l-0.647,3.022l0.762,0l1.347,-6.355ZM84.632,69.435c0.002,-0.191 -0.025,-0.376 -0.08,-0.556c-0.055,-0.178 -0.152,-0.341 -0.289,-0.484c-0.136,-0.145 -0.326,-0.26 -0.569,-0.344c-0.243,-0.086 -0.55,-0.13 -0.923,-0.132c-0.288,0.002 -0.537,0.011 -0.749,0.028c-0.212,0.016 -0.376,0.034 -0.491,0.05c-0.117,0.018 -0.176,0.027 -0.178,0.029l-1.338,6.283l0.762,0l0.603,-2.836l0.363,0c0.146,0 0.263,0.04 0.355,0.12c0.09,0.078 0.167,0.194 0.231,0.348c0.064,0.154 0.129,0.344 0.194,0.569l0.55,1.799l0.797,0l-0.62,-1.968c-0.052,-0.168 -0.099,-0.305 -0.141,-0.412c-0.043,-0.106 -0.081,-0.19 -0.118,-0.252c-0.037,-0.062 -0.075,-0.114 -0.115,-0.154c-0.04,-0.038 -0.083,-0.077 -0.131,-0.112l0.009,-0.036c0.341,-0.059 0.63,-0.156 0.869,-0.288c0.24,-0.132 0.433,-0.289 0.583,-0.469c0.147,-0.181 0.256,-0.373 0.325,-0.576c0.069,-0.204 0.103,-0.407 0.101,-0.607ZM83.826,69.435c0.001,0.137 -0.018,0.279 -0.056,0.424c-0.039,0.143 -0.101,0.282 -0.185,0.416c-0.086,0.134 -0.196,0.254 -0.335,0.36c-0.139,0.108 -0.307,0.192 -0.507,0.254c-0.198,0.062 -0.431,0.095 -0.698,0.097l-0.576,0l0.54,-2.455c0.002,-0.002 0.034,-0.006 0.096,-0.016c0.064,-0.011 0.146,-0.021 0.251,-0.03c0.104,-0.01 0.219,-0.016 0.344,-0.016c0.365,-0.003 0.645,0.072 0.836,0.227c0.192,0.154 0.288,0.399 0.29,0.739ZM90.419,70.197c-0.205,-0.106 -0.415,-0.186 -0.627,-0.239c-0.215,-0.054 -0.422,-0.08 -0.622,-0.08c-0.235,0 -0.454,0.026 -0.659,0.078c-0.204,0.053 -0.386,0.133 -0.541,0.238c-0.156,0.106 -0.279,0.241 -0.368,0.402c-0.087,0.161 -0.132,0.35 -0.134,0.567c0,0.164 0.031,0.304 0.093,0.422c0.064,0.118 0.16,0.226 0.29,0.322c0.128,0.096 0.293,0.194 0.494,0.293c0.126,0.06 0.244,0.116 0.355,0.165c0.112,0.05 0.211,0.103 0.297,0.159c0.085,0.058 0.153,0.125 0.204,0.205c0.048,0.078 0.073,0.177 0.075,0.295c-0.002,0.152 -0.025,0.28 -0.069,0.386c-0.046,0.104 -0.105,0.188 -0.179,0.255c-0.073,0.066 -0.153,0.116 -0.238,0.152c-0.085,0.037 -0.17,0.06 -0.252,0.074c-0.083,0.013 -0.155,0.02 -0.219,0.019c-0.175,-0.001 -0.329,-0.03 -0.465,-0.083c-0.138,-0.053 -0.258,-0.124 -0.361,-0.213c-0.102,-0.088 -0.19,-0.184 -0.264,-0.289l-0.523,0.558c0.105,0.13 0.233,0.235 0.385,0.317c0.153,0.081 0.316,0.14 0.494,0.177c0.177,0.038 0.357,0.056 0.539,0.056c0.403,-0.002 0.749,-0.067 1.037,-0.192c0.288,-0.127 0.508,-0.305 0.661,-0.532c0.154,-0.228 0.232,-0.495 0.234,-0.8c0,-0.163 -0.027,-0.299 -0.077,-0.408c-0.05,-0.109 -0.121,-0.202 -0.214,-0.282c-0.093,-0.08 -0.204,-0.157 -0.334,-0.229c-0.128,-0.072 -0.271,-0.154 -0.43,-0.242c-0.152,-0.085 -0.285,-0.159 -0.399,-0.224c-0.113,-0.063 -0.202,-0.131 -0.265,-0.202c-0.064,-0.069 -0.096,-0.155 -0.098,-0.257c0.002,-0.144 0.033,-0.263 0.091,-0.351c0.057,-0.09 0.13,-0.158 0.218,-0.205c0.089,-0.046 0.178,-0.077 0.27,-0.095c0.093,-0.016 0.174,-0.024 0.245,-0.022c0.166,-0.002 0.34,0.037 0.52,0.117c0.18,0.077 0.356,0.208 0.526,0.388l0.31,-0.7ZM94.921,71.402c-0.001,-0.323 -0.045,-0.586 -0.13,-0.787c-0.085,-0.203 -0.201,-0.356 -0.344,-0.464c-0.143,-0.107 -0.304,-0.179 -0.483,-0.218c-0.179,-0.039 -0.362,-0.058 -0.549,-0.055c-0.194,0 -0.387,0.028 -0.582,0.085c-0.194,0.058 -0.383,0.144 -0.565,0.257c-0.183,0.114 -0.352,0.257 -0.511,0.429c-0.166,0.178 -0.313,0.388 -0.441,0.628c-0.127,0.239 -0.226,0.499 -0.298,0.78c-0.073,0.278 -0.11,0.569 -0.112,0.869c0.002,0.245 0.033,0.457 0.095,0.633c0.061,0.174 0.144,0.32 0.247,0.436c0.105,0.116 0.221,0.207 0.352,0.274c0.129,0.066 0.265,0.114 0.404,0.142c0.14,0.026 0.276,0.041 0.409,0.04c0.194,0 0.387,-0.028 0.582,-0.086c0.194,-0.058 0.383,-0.144 0.566,-0.257c0.182,-0.114 0.352,-0.257 0.51,-0.428c0.166,-0.179 0.314,-0.389 0.441,-0.628c0.127,-0.239 0.228,-0.499 0.298,-0.78c0.073,-0.281 0.11,-0.57 0.111,-0.87ZM94.159,71.49c-0.001,0.221 -0.027,0.442 -0.075,0.662c-0.051,0.221 -0.117,0.429 -0.201,0.624c-0.083,0.196 -0.177,0.368 -0.282,0.514c-0.15,0.209 -0.316,0.369 -0.504,0.48c-0.187,0.11 -0.379,0.165 -0.577,0.166c-0.084,0.002 -0.175,-0.011 -0.272,-0.041c-0.096,-0.029 -0.189,-0.084 -0.276,-0.162c-0.089,-0.079 -0.16,-0.189 -0.216,-0.334c-0.056,-0.145 -0.086,-0.333 -0.087,-0.561c0.001,-0.221 0.026,-0.442 0.075,-0.662c0.05,-0.22 0.117,-0.428 0.201,-0.623c0.083,-0.197 0.177,-0.368 0.282,-0.514c0.148,-0.21 0.313,-0.37 0.498,-0.48c0.183,-0.111 0.378,-0.167 0.583,-0.167c0.084,-0.003 0.175,0.007 0.272,0.031c0.096,0.022 0.189,0.069 0.276,0.143c0.089,0.073 0.16,0.182 0.216,0.331c0.056,0.148 0.086,0.345 0.087,0.593ZM97.305,67.972l-0.718,0l-1.347,6.337l0.718,0l1.347,-6.337ZM101.373,69.949l-0.718,0l-0.301,1.409c-0.031,0.149 -0.077,0.313 -0.136,0.488c-0.061,0.178 -0.131,0.357 -0.216,0.54c-0.084,0.183 -0.179,0.358 -0.283,0.527c-0.105,0.168 -0.218,0.32 -0.34,0.453c-0.123,0.135 -0.251,0.24 -0.386,0.318c-0.135,0.078 -0.276,0.118 -0.421,0.119c-0.109,0.002 -0.203,-0.016 -0.28,-0.05c-0.079,-0.032 -0.139,-0.09 -0.18,-0.168c-0.042,-0.08 -0.062,-0.188 -0.062,-0.322c0,-0.071 0.005,-0.152 0.019,-0.245c0.011,-0.092 0.029,-0.194 0.051,-0.304l0.595,-2.765l-0.718,0l-0.656,3.075c-0.018,0.093 -0.033,0.183 -0.045,0.269c-0.012,0.085 -0.017,0.165 -0.017,0.236c0.001,0.193 0.026,0.35 0.078,0.466c0.05,0.119 0.118,0.209 0.204,0.27c0.084,0.06 0.18,0.1 0.286,0.12c0.105,0.021 0.214,0.032 0.326,0.03c0.107,0.002 0.23,-0.013 0.367,-0.044c0.136,-0.031 0.284,-0.09 0.44,-0.176c0.157,-0.087 0.319,-0.211 0.487,-0.374c0.167,-0.163 0.336,-0.376 0.506,-0.638l0.053,0l-0.16,1.126l0.709,0c0,-0.002 0.003,-0.039 0.009,-0.109c0.006,-0.072 0.015,-0.165 0.027,-0.281c0.012,-0.118 0.026,-0.247 0.042,-0.387c0.017,-0.142 0.036,-0.282 0.057,-0.424c0.022,-0.142 0.044,-0.273 0.069,-0.394l0.594,-2.765ZM104.572,69.949l-1.002,0l0.329,-1.56l-0.462,0.097l-0.318,0.692c-0.077,0.167 -0.169,0.314 -0.275,0.446c-0.107,0.131 -0.223,0.24 -0.352,0.328c-0.128,0.085 -0.266,0.143 -0.41,0.174l-0.08,0.39l0.682,0l-0.478,2.251c-0.019,0.085 -0.037,0.195 -0.053,0.326c-0.016,0.131 -0.025,0.275 -0.027,0.427c-0.001,0.099 0.011,0.198 0.032,0.299c0.024,0.1 0.068,0.193 0.132,0.277c0.064,0.085 0.157,0.152 0.278,0.204c0.119,0.051 0.277,0.078 0.471,0.08c0.082,0 0.18,-0.009 0.292,-0.027c0.113,-0.019 0.226,-0.043 0.34,-0.074c0.114,-0.029 0.213,-0.065 0.298,-0.103l0.036,-0.434c-0.062,0.02 -0.133,0.039 -0.217,0.057c-0.083,0.018 -0.163,0.031 -0.24,0.042c-0.078,0.01 -0.137,0.016 -0.181,0.016c-0.17,0.002 -0.3,-0.038 -0.393,-0.118c-0.092,-0.08 -0.138,-0.207 -0.139,-0.378c0,-0.071 0.006,-0.15 0.019,-0.236c0.012,-0.085 0.03,-0.181 0.052,-0.287l0.496,-2.322l1.046,0l0.124,-0.567ZM106.575,68.814c0.001,-0.063 -0.009,-0.126 -0.03,-0.189c-0.021,-0.062 -0.059,-0.114 -0.115,-0.155c-0.055,-0.04 -0.134,-0.062 -0.237,-0.063c-0.124,0.001 -0.228,0.026 -0.311,0.076c-0.084,0.051 -0.148,0.117 -0.191,0.198c-0.042,0.082 -0.064,0.17 -0.064,0.266c0,0.073 0.013,0.139 0.041,0.2c0.028,0.062 0.072,0.112 0.133,0.149c0.062,0.038 0.142,0.057 0.242,0.059c0.09,0 0.176,-0.018 0.256,-0.056c0.081,-0.037 0.146,-0.096 0.197,-0.176c0.051,-0.08 0.077,-0.182 0.079,-0.309ZM106.212,69.949l-0.718,0l-0.931,4.36l0.718,0l0.931,-4.36ZM110.713,71.402c-0.001,-0.323 -0.045,-0.586 -0.13,-0.787c-0.085,-0.203 -0.2,-0.356 -0.344,-0.464c-0.143,-0.107 -0.304,-0.179 -0.483,-0.218c-0.179,-0.039 -0.362,-0.058 -0.549,-0.055c-0.194,0 -0.387,0.028 -0.582,0.085c-0.194,0.058 -0.383,0.144 -0.565,0.257c-0.183,0.114 -0.352,0.257 -0.51,0.429c-0.167,0.178 -0.314,0.388 -0.442,0.628c-0.127,0.239 -0.226,0.499 -0.298,0.78c-0.073,0.278 -0.11,0.569 -0.111,0.869c0.001,0.245 0.032,0.457 0.095,0.633c0.06,0.174 0.143,0.32 0.246,0.436c0.105,0.116 0.222,0.207 0.352,0.274c0.129,0.066 0.266,0.114 0.404,0.142c0.14,0.026 0.277,0.041 0.41,0.04c0.193,0 0.386,-0.028 0.581,-0.086c0.194,-0.058 0.383,-0.144 0.566,-0.257c0.182,-0.114 0.352,-0.257 0.51,-0.428c0.167,-0.179 0.314,-0.389 0.441,-0.628c0.127,-0.239 0.228,-0.499 0.298,-0.78c0.073,-0.281 0.11,-0.57 0.111,-0.87ZM109.951,71.49c-0.001,0.221 -0.027,0.442 -0.075,0.662c-0.05,0.221 -0.117,0.429 -0.201,0.624c-0.083,0.196 -0.177,0.368 -0.282,0.514c-0.149,0.209 -0.316,0.369 -0.504,0.48c-0.187,0.11 -0.379,0.165 -0.577,0.166c-0.084,0.002 -0.175,-0.011 -0.272,-0.041c-0.096,-0.029 -0.189,-0.084 -0.276,-0.162c-0.089,-0.079 -0.16,-0.189 -0.216,-0.334c-0.056,-0.145 -0.086,-0.333 -0.087,-0.561c0.001,-0.221 0.026,-0.442 0.075,-0.662c0.05,-0.22 0.117,-0.428 0.201,-0.623c0.083,-0.197 0.177,-0.368 0.282,-0.514c0.148,-0.21 0.313,-0.37 0.498,-0.48c0.183,-0.111 0.378,-0.167 0.583,-0.167c0.085,-0.003 0.175,0.007 0.272,0.031c0.096,0.022 0.189,0.069 0.276,0.143c0.089,0.073 0.16,0.182 0.216,0.331c0.056,0.148 0.086,0.345 0.087,0.593ZM115.109,70.684c-0.001,-0.189 -0.037,-0.342 -0.109,-0.464c-0.071,-0.119 -0.172,-0.208 -0.301,-0.266c-0.131,-0.057 -0.282,-0.085 -0.458,-0.085c-0.101,-0.001 -0.218,0.012 -0.351,0.039c-0.133,0.027 -0.277,0.079 -0.431,0.156c-0.155,0.077 -0.316,0.189 -0.481,0.335c-0.167,0.148 -0.334,0.34 -0.501,0.578l-0.027,0l0.169,-1.028l-0.718,0.071c0,-0.002 -0.002,0.013 -0.006,0.044c-0.004,0.03 -0.013,0.087 -0.026,0.17c-0.015,0.082 -0.036,0.201 -0.065,0.354c-0.03,0.154 -0.068,0.353 -0.117,0.597c-0.049,0.245 -0.111,0.545 -0.185,0.899l-0.469,2.225l0.717,0l0.257,-1.179c0.108,-0.487 0.234,-0.899 0.378,-1.235c0.144,-0.335 0.297,-0.604 0.46,-0.806c0.164,-0.204 0.328,-0.35 0.493,-0.44c0.167,-0.09 0.325,-0.135 0.477,-0.133c0.134,0.001 0.24,0.025 0.315,0.072c0.075,0.049 0.127,0.112 0.156,0.194c0.03,0.081 0.045,0.173 0.043,0.274c0,0.08 -0.006,0.171 -0.019,0.268c-0.012,0.097 -0.03,0.196 -0.052,0.299l-0.567,2.686l0.718,0l0.62,-2.925c0.018,-0.081 0.033,-0.162 0.045,-0.246c0.011,-0.084 0.02,-0.166 0.026,-0.243c0.006,-0.078 0.009,-0.149 0.009,-0.211ZM119.026,70.197c-0.205,-0.106 -0.415,-0.186 -0.628,-0.239c-0.214,-0.054 -0.421,-0.08 -0.621,-0.08c-0.236,0 -0.454,0.026 -0.659,0.078c-0.204,0.053 -0.386,0.133 -0.541,0.238c-0.156,0.106 -0.279,0.241 -0.368,0.402c-0.087,0.161 -0.133,0.35 -0.134,0.567c0,0.164 0.031,0.304 0.093,0.422c0.064,0.118 0.16,0.226 0.29,0.322c0.128,0.096 0.293,0.194 0.494,0.293c0.126,0.06 0.244,0.116 0.355,0.165c0.112,0.05 0.211,0.103 0.297,0.159c0.085,0.058 0.153,0.125 0.204,0.205c0.048,0.078 0.073,0.177 0.075,0.295c-0.002,0.152 -0.025,0.28 -0.07,0.386c-0.045,0.104 -0.104,0.188 -0.178,0.255c-0.073,0.066 -0.153,0.116 -0.238,0.152c-0.085,0.037 -0.17,0.06 -0.252,0.074c-0.083,0.013 -0.156,0.02 -0.219,0.019c-0.175,-0.001 -0.329,-0.03 -0.465,-0.083c-0.138,-0.053 -0.258,-0.124 -0.361,-0.213c-0.102,-0.088 -0.19,-0.184 -0.264,-0.289l-0.523,0.558c0.105,0.13 0.233,0.235 0.385,0.317c0.153,0.081 0.316,0.14 0.494,0.177c0.177,0.038 0.357,0.056 0.539,0.056c0.403,-0.002 0.749,-0.067 1.037,-0.192c0.288,-0.127 0.508,-0.305 0.661,-0.532c0.154,-0.228 0.232,-0.495 0.234,-0.8c0,-0.163 -0.027,-0.299 -0.077,-0.408c-0.05,-0.109 -0.121,-0.202 -0.214,-0.282c-0.093,-0.08 -0.204,-0.157 -0.334,-0.229c-0.128,-0.072 -0.272,-0.154 -0.43,-0.242c-0.152,-0.085 -0.285,-0.159 -0.399,-0.224c-0.113,-0.063 -0.202,-0.131 -0.266,-0.202c-0.063,-0.069 -0.096,-0.155 -0.097,-0.257c0.001,-0.144 0.033,-0.263 0.09,-0.351c0.057,-0.09 0.131,-0.158 0.219,-0.205c0.088,-0.046 0.178,-0.077 0.27,-0.095c0.093,-0.016 0.174,-0.024 0.245,-0.022c0.166,-0.002 0.34,0.037 0.52,0.117c0.18,0.077 0.356,0.208 0.526,0.388l0.31,-0.7Z" style="fill:#231f20;fill-rule:nonzero;"/></g><defs><linearGradient id="_Linear1" x1="0" y1="0" x2="1" y2="0" gradientUnits="userSpaceOnUse" gradientTransform="matrix(43.3649,43.3649,43.3649,-43.3649,75.0407,0.32191)"><stop offset="0%" style="stop-color:#00b2cd;stop-opacity:1"/><stop offset="100%" style="stop-color:#95c948;stop-opacity:1"/></linearGradient></defs></svg>