<?xml version="1.0" standalone="no"?><!DOCTYPE svg PUBLIC "-//W3C//DTD SVG 1.1//EN" "http://www.w3.org/Graphics/SVG/1.1/DTD/svg11.dtd"><svg width="100%" height="100%" viewBox="0 0 251 339" version="1.1" xmlns="http://www.w3.org/2000/svg" xmlns:xlink="http://www.w3.org/1999/xlink" xml:space="preserve" style="fill-rule:evenodd;clip-rule:evenodd;stroke-linejoin:round;stroke-miterlimit:1.41421;"><path d="M126,0.458l124.13,71.667l0,143.334l-124.13,71.666l-124.13,-71.666l0,-143.334l124.13,-71.667ZM126,11.83l114.282,65.981l0,131.962l-114.282,65.98l-114.282,-65.98l0,-131.962l114.282,-65.981Z" style="fill:#fc1454;"/><g><path d="M5.999,326.212l4.34,0c0.971,0 1.705,-0.268 2.201,-0.806c0.496,-0.537 0.744,-1.209 0.744,-2.015c0,-0.826 -0.253,-1.508 -0.76,-2.046c-0.506,-0.537 -1.234,-0.806 -2.185,-0.806l-4.34,0l0,5.673ZM11.3,316.726c1.054,0 1.963,0.202 2.728,0.605c0.765,0.403 1.4,0.925 1.906,1.565c0.507,0.641 0.879,1.359 1.116,2.155c0.238,0.795 0.357,1.576 0.357,2.34c0,0.786 -0.14,1.571 -0.419,2.356c-0.279,0.786 -0.682,1.499 -1.209,2.139c-0.527,0.641 -1.178,1.163 -1.953,1.566c-0.775,0.403 -1.658,0.604 -2.65,0.604l-5.177,0l0,8.029l-4.247,0l0,-21.359l9.548,0Z" style="fill:#282828;fill-rule:nonzero;"/><path d="M36.038,333.683l-7.44,0l-1.395,4.402l-4.526,0l7.502,-21.359l4.34,0l7.44,21.359l-4.619,0l-1.302,-4.402ZM29.745,330.118l5.146,0l-0.837,-2.728l-1.674,-5.642l-0.124,0l-1.643,5.549l-0.868,2.821Z" style="fill:#282828;fill-rule:nonzero;"/><path d="M54.173,326.212l4.34,0c0.971,0 1.705,-0.268 2.201,-0.806c0.496,-0.537 0.744,-1.209 0.744,-2.015c0,-0.826 -0.253,-1.508 -0.76,-2.046c-0.506,-0.537 -1.234,-0.806 -2.185,-0.806l-4.34,0l0,5.673ZM59.474,316.726c1.054,0 1.963,0.202 2.728,0.605c0.765,0.403 1.4,0.925 1.906,1.565c0.507,0.641 0.879,1.359 1.116,2.155c0.238,0.795 0.357,1.576 0.357,2.34c0,0.786 -0.14,1.571 -0.419,2.356c-0.279,0.786 -0.682,1.499 -1.209,2.139c-0.527,0.641 -1.178,1.163 -1.953,1.566c-0.775,0.403 -1.658,0.604 -2.65,0.604l-5.177,0l0,8.029l-4.247,0l0,-21.359l9.548,0Z" style="fill:#282828;fill-rule:nonzero;"/><path d="M73.734,316.726l14.725,0l0,3.813l-10.478,0l0,4.898l8.959,0l0,3.813l-8.959,0l0,5.053l10.478,0l0,3.782l-14.725,0l0,-21.359Z" style="fill:#282828;fill-rule:nonzero;"/><path d="M109.796,329.272c1.804,2.64 4.185,4.228 6.991,5.042l-1.596,3.771c-4.336,-1.208 -7.987,-3.728 -9.998,-8.029l-3.466,0l0,8.029l-4.247,0l0,-21.359l9.517,0c1.075,0 1.999,0.202 2.774,0.605c0.775,0.403 1.416,0.925 1.922,1.565c0.507,0.641 0.879,1.359 1.116,2.155c0.238,0.795 0.357,1.576 0.357,2.34c0,0.558 -0.078,1.132 -0.233,1.721c-0.155,0.589 -0.382,1.147 -0.682,1.674c-0.299,0.527 -0.666,1.012 -1.1,1.457c-0.399,0.408 -0.851,0.751 -1.355,1.029ZM101.727,326.212l4.309,0c0.992,0 1.736,-0.263 2.232,-0.79c0.496,-0.527 0.744,-1.204 0.744,-2.031c0,-0.826 -0.253,-1.508 -0.76,-2.046c-0.506,-0.537 -1.245,-0.806 -2.216,-0.806l-4.309,0l0,5.673Z" style="fill:#282828;"/><path d="M139.764,326.212l4.34,0c0.971,0 1.705,-0.268 2.201,-0.806c0.496,-0.537 0.744,-1.209 0.744,-2.015c0,-0.826 -0.253,-1.508 -0.759,-2.046c-0.507,-0.537 -1.235,-0.806 -2.186,-0.806l-4.34,0l0,5.673ZM145.065,316.726c1.054,0 1.963,0.202 2.728,0.605c0.765,0.403 1.4,0.925 1.907,1.565c0.506,0.641 0.878,1.359 1.116,2.155c0.237,0.795 0.356,1.576 0.356,2.34c0,0.786 -0.139,1.571 -0.418,2.356c-0.279,0.786 -0.682,1.499 -1.209,2.139c-0.527,0.641 -1.178,1.163 -1.953,1.566c-0.775,0.403 -1.659,0.604 -2.651,0.604l-5.177,0l0,8.029l-4.247,0l0,-21.359l9.548,0Z" style="fill:#282828;fill-rule:nonzero;"/><path d="M159.387,338.085l0,-21.359l4.185,0l0,17.577l10.571,0l0,3.782l-14.756,0Z" style="fill:#282828;fill-rule:nonzero;"/><path d="M193.828,333.683l-7.44,0l-1.395,4.402l-4.526,0l7.502,-21.359l4.34,0l7.44,21.359l-4.619,0l-1.302,-4.402ZM187.535,330.118l5.146,0l-0.837,-2.728l-1.674,-5.642l-0.124,0l-1.643,5.549l-0.868,2.821Z" style="fill:#282828;fill-rule:nonzero;"/><path d="M211.994,324.631l0,13.454l-4.216,0l0,-21.359l3.844,0l4.96,7.316l4.061,6.2l0.124,0l0,-13.516l4.247,0l0,21.359l-3.875,0l-5.425,-8.06l-3.534,-5.394l-0.186,0Z" style="fill:#282828;fill-rule:nonzero;"/><path d="M250.248,331.916c0,1.034 -0.207,1.948 -0.62,2.744c-0.413,0.795 -0.987,1.457 -1.72,1.984c-0.734,0.527 -1.597,0.925 -2.589,1.193c-0.992,0.269 -2.067,0.403 -3.224,0.403c-1.55,0 -3.007,-0.217 -4.371,-0.651c-1.364,-0.434 -2.697,-1.198 -3.999,-2.294l2.387,-3.1c0.93,0.724 1.896,1.276 2.899,1.659c1.002,0.382 1.999,0.573 2.991,0.573c0.682,0 1.261,-0.067 1.736,-0.201c0.475,-0.135 0.858,-0.321 1.147,-0.558c0.289,-0.238 0.501,-0.507 0.636,-0.806c0.134,-0.3 0.201,-0.605 0.201,-0.915c0,-0.475 -0.119,-0.868 -0.356,-1.178c-0.238,-0.31 -0.579,-0.573 -1.023,-0.79c-0.445,-0.217 -0.972,-0.414 -1.581,-0.589c-0.61,-0.176 -1.287,-0.367 -2.031,-0.574c-0.827,-0.206 -1.617,-0.46 -2.371,-0.759c-0.755,-0.3 -1.421,-0.682 -2,-1.147c-0.579,-0.465 -1.038,-1.034 -1.379,-1.705c-0.341,-0.672 -0.512,-1.483 -0.512,-2.434c0,-0.93 0.176,-1.787 0.527,-2.573c0.351,-0.785 0.842,-1.462 1.473,-2.03c0.63,-0.569 1.395,-1.013 2.294,-1.333c0.899,-0.321 1.896,-0.481 2.991,-0.481c1.302,-0.02 2.604,0.104 3.906,0.372c1.302,0.269 2.563,0.806 3.782,1.612l-1.86,3.41c-0.992,-0.599 -1.932,-1.012 -2.821,-1.24c-0.889,-0.227 -1.767,-0.341 -2.635,-0.341c-0.413,0 -0.821,0.052 -1.224,0.155c-0.403,0.104 -0.765,0.253 -1.085,0.45c-0.321,0.196 -0.579,0.454 -0.775,0.775c-0.197,0.32 -0.295,0.697 -0.295,1.131c0,0.434 0.109,0.801 0.326,1.101c0.217,0.299 0.532,0.558 0.945,0.775c0.413,0.217 0.915,0.408 1.504,0.573c0.589,0.166 1.255,0.331 1.999,0.496c2.253,0.496 3.937,1.251 5.053,2.263c1.116,1.013 1.674,2.356 1.674,4.03Z" style="fill:#282828;fill-rule:nonzero;"/></g></svg>