<?xml version="1.0" standalone="no"?><!DOCTYPE svg PUBLIC "-//W3C//DTD SVG 1.1//EN" "http://www.w3.org/Graphics/SVG/1.1/DTD/svg11.dtd"><svg width="100%" height="100%" viewBox="0 0 252 52" version="1.1" xmlns="http://www.w3.org/2000/svg" xmlns:xlink="http://www.w3.org/1999/xlink" xml:space="preserve" style="fill-rule:evenodd;clip-rule:evenodd;stroke-linejoin:round;stroke-miterlimit:1.41421;"><path d="M203.677,29.994c2.483,-0.36 4.448,-1.225 6.035,-2.458c10.567,17.788 24.421,23.659 40.214,21.832l0.549,1.449c-18.174,2.094 -34.434,-2.347 -46.798,-20.823Z" style="fill:#8a4734;"/><path d="M152.854,0.582c11.227,0 20.343,10.141 20.343,22.632c0,12.491 -9.116,22.632 -20.343,22.632c-11.228,0 -20.344,-10.141 -20.344,-22.632c0,-12.491 9.116,-22.632 20.344,-22.632ZM191.184,18.59l0,23.102l6.426,0l0,2.794l-18.616,0l0,-2.794l6.21,0l0,-35.898l-5.73,-2.283l0.078,-1.458l7.931,0.068l3.31,6.35c3.31,-3.384 6.838,-6.319 10.814,-7.086c17.099,-3.301 16.535,7.739 16.006,11.121l-6.14,0c-0.089,-1.31 -0.373,-9.258 -7.929,-8.304c-8.525,1.076 -11.345,10.597 -12.36,14.388ZM56.167,13.632l0,28.06l6.426,0l0,2.794l-18.616,0l0,-2.794l6.21,0l0,-35.898l-5.73,-2.283l0.078,-1.458l7.931,0.068l3.312,6.352c3.316,-3.331 6.905,-5.743 10.811,-7.088c4.47,-1.464 8.559,-0.914 12.285,1.557c2.664,2.37 3.791,5.278 3.722,8.604l0.028,0l0,30.146l6.148,0l0,2.794l-18.102,0l0,-2.794l5.747,0l0,-30.146l0.039,0c-0.232,-2.632 -0.963,-4.776 -3.048,-5.925c-5.94,-2.551 -14.29,2.428 -17.241,8.011ZM152.854,3.379c7.598,0 13.766,8.888 13.766,19.835c0,10.947 -6.168,19.835 -13.766,19.835c-7.598,0 -13.767,-8.888 -13.767,-19.835c0,-10.947 6.169,-19.835 13.767,-19.835ZM118.427,3.777l0,7.079c2.11,1.553 4.14,1.45 6.082,-0.473c1.13,-2.005 1.366,-4.162 -0.275,-6.634c-1.72,-2.008 -5.028,-2.942 -9.383,-3.167c-4.495,-0.015 -8.897,1.083 -13.067,4.925c-5.143,5.161 -7.688,10.939 -7.909,17.269c0.135,7.563 2.813,12.983 7.006,17.128c10.515,10.907 22.833,3.973 25.18,1.299l-1.404,-1.953c-4.054,3.394 -9.836,5.332 -15.326,2.231c-7.045,-3.979 -8.369,-12.909 -8.245,-17.356c0.673,-23.975 14.696,-21.52 17.341,-20.348ZM26.565,19.281c-10.611,1.235 -18.484,4.071 -19.798,10.741c-0.824,5.583 0.461,9.091 3.6,10.777c4.58,1.725 8.715,0.909 12.469,-2.081c2.021,-1.986 3.16,-4.075 3.729,-6.229l0,-13.208ZM26.83,38.635c-2.603,3.111 -5.911,5.316 -9.991,6.53c-5.794,1.172 -10.634,0.413 -13.931,-3.473c-2.218,-2.704 -2.965,-6.434 -2.168,-11.239c1.35,-4.46 4.42,-7.539 8.709,-9.639c5.358,-2.332 11.101,-3.613 17.116,-4.151l0,-0.213c0,0 1.875,-13.28 -9.066,-13.574c-8.71,-0.235 -7.562,7.888 -7.562,7.888l-6.151,0.167c-0.701,-3.073 0.781,-10.311 13.696,-10.54c9.745,-0.174 14.23,6.514 15.095,15.63l0,25.744l5.668,0l0,1.203l-8.493,2.197l-2.922,-6.53Z" style="fill:#000;"/></svg>