<?xml version="1.0" encoding="UTF-8" standalone="no"?>
<svg width="63px" height="71px" viewBox="0 0 63 71" version="1.1" xmlns="http://www.w3.org/2000/svg" xmlns:xlink="http://www.w3.org/1999/xlink" xmlns:sketch="http://www.bohemiancoding.com/sketch/ns">
    <!-- Generator: Sketch 3.3.2 (12043) - http://www.bohemiancoding.com/sketch -->
    <title>Imported Layers Copy 4</title>
    <desc>Created with Sketch.</desc>
    <defs></defs>
    <g id="Page-1" stroke="none" stroke-width="1" fill="none" fill-rule="evenodd" sketch:type="MSPage">
        <g id="ancor_prog_2a" sketch:type="MSArtboardGroup" transform="translate(-908.000000, -3460.000000)" fill="#FFFFFF">
            <g id="КАРТА" sketch:type="MSLayerGroup" transform="translate(0.161804, 3291.893770)">
                <g id="2015-10-13-12-30-56-Banners-and-Alerts" transform="translate(0.000000, 0.186310)" sketch:type="MSShapeGroup">
                    <path d="M919.931746,231.391182 L917.55694,238 L908,238 L934.299372,168 L944.800603,168 L970,238 L959.876729,238 L957.637538,231.391182 L919.931746,231.391182 L919.931746,231.391182 Z M922.858669,223.245945 L954.877777,223.245945 L952.654899,216.685283 L925.216175,216.685283 L922.858669,223.245945 L922.858669,223.245945 Z M930.439226,201.952383 L928.05361,208.539741 L949.342202,208.539741 L947.141993,201.952383 L930.439226,201.952383 L930.439226,201.952383 Z M933.389122,193.806842 L944.421336,193.806842 L939.218627,178.23006 L939.030255,178.23006 L933.389122,193.806842 L933.389122,193.806842 Z" id="Imported-Layers-Copy-4" transform="translate(939.000000, 203.000000) rotate(-180.000000) translate(-939.000000, -203.000000) "></path>
                </g>
            </g>
        </g>
    </g>
</svg>